<svg xmlns="http://www.w3.org/2000/svg" viewBox="0 0 73.57 84.39"><defs><style>.cls-1{fill:#292929;}</style></defs><title>beer</title><g id="Слой_2" data-name="Слой 2"><g id="Слой_1-2" data-name="Слой 1"><path class="cls-1" d="M22.79,0c1,.31,2,.55,2.95,1a9.35,9.35,0,0,1,4.1,3.48,37.44,37.44,0,0,1,4.46-.83,9.11,9.11,0,0,1,7.5,3.07,1.23,1.23,0,0,0,1.52.43,8.48,8.48,0,0,1,9.47,3.05,8.32,8.32,0,0,1,.48,9.36,1.84,1.84,0,0,0-.08,1c.07.65.28,1.29.3,1.93,0,1.75,0,3.51,0,5.35.35,0,.64,0,.93,0,2.8,0,5.6.05,8.41,0,6.63-.14,9.51,4,10.39,8.91A24.61,24.61,0,0,1,73.54,41c0,7,.06,14,0,20.93a22.78,22.78,0,0,1-.72,5.69c-1.3,4.75-4.62,7.15-9.58,7.19-2.91,0-5.82,0-8.74,0h-.91c-.1,1.18-.11,2.31-.31,3.4A7.78,7.78,0,0,1,46,84.36q-16.52,0-33,0a7.78,7.78,0,0,1-7.52-7.59q-.05-17.84,0-35.68c0-.77-.15-1.11-1-1.33A6,6,0,0,1,.06,33.94c0-5.82-.11-11.65,0-17.47a8.54,8.54,0,0,1,11-8.09l.51.12c.22-.73.38-1.45.65-2.12A9.85,9.85,0,0,1,19.85.15,3.88,3.88,0,0,0,20.31,0ZM12.55,29.9c0,1.32,0,2.59,0,3.85a6.23,6.23,0,0,1-3.09,5.48A1.14,1.14,0,0,0,9,40q0,18.25,0,36.51a4.4,4.4,0,0,0,4.42,4.3q6,0,12,0l20.11,0a4.35,4.35,0,0,0,4.34-3.55A13.08,13.08,0,0,0,49.93,75q0-26,0-51.92V21.94H39.7c0,5.16-2,9-7,10.56-4.75,1.51-8.59-.22-11.5-4.16C16.9,30.55,16.42,30.64,12.55,29.9ZM3.61,25.1c0,2.83,0,5.66,0,8.49a4.14,4.14,0,0,0,.58,2,2.46,2.46,0,0,0,2.85.91A2.6,2.6,0,0,0,8.94,34c0-2.33,0-4.67,0-7a1.89,1.89,0,0,1,1-1.84,1.82,1.82,0,0,1,2.07.32l.26.21a4.77,4.77,0,0,0,5.55.48,9.81,9.81,0,0,0,2.3-2.38,1.86,1.86,0,0,1,1.76-.82,1.64,1.64,0,0,1,1.4,1.22c.07.24.16.47.22.71A6.36,6.36,0,0,0,36,23.44c.06-.93,0-1.87,0-2.8,0-1.7.65-2.34,2.33-2.35,3.54,0,7.09,0,10.63,0a1.34,1.34,0,0,0,1.35-.81,4.8,4.8,0,0,0-.84-5.76,5.07,5.07,0,0,0-6-.83c-1.85,1-2.32.88-3.53-.91a6.22,6.22,0,0,0-5.32-2.93,6.91,6.91,0,0,0-4.12,1.41,1.8,1.8,0,0,1-2.93-.88c-.09-.2-.15-.41-.24-.61a6.39,6.39,0,0,0-11.92,4.53,1.72,1.72,0,0,1-.76,2.06,1.75,1.75,0,0,1-2.19-.27,11,11,0,0,0-1-.84,4.85,4.85,0,0,0-5.22-.24,4.85,4.85,0,0,0-2.63,4.53C3.6,19.55,3.61,22.33,3.61,25.1ZM53.53,37.81c1.38,0,2.72,0,4.06,0,3.59,0,5.69,1.73,6.43,5.23a9,9,0,0,1,.24,1.87c0,4.59,0,9.18-.11,13.76a6,6,0,0,1-4.56,5.95,12,12,0,0,1-2.53.2c-1.17,0-2.34,0-3.52,0v6.35c3.61,0,7.15.09,10.69,0a5.18,5.18,0,0,0,4.71-3.46,13.73,13.73,0,0,0,1-5.55c0-7.14,0-14.29,0-21.43a19.54,19.54,0,0,0-.52-4.39c-.78-3.28-2.87-4.83-6.23-4.84H53.53Zm0,3.59V61.24c1.7,0,3.36.05,5,0a1.91,1.91,0,0,0,1.77-1.51A10.88,10.88,0,0,0,60.71,57c0-3.79,0-7.57,0-11.36a10.05,10.05,0,0,0-.29-2.43,2.22,2.22,0,0,0-2.32-1.83C56.62,41.37,55.14,41.41,53.54,41.41Z"/><path class="cls-1" d="M18.51,53.12q0,7,0,14.08a4.46,4.46,0,0,1-.08,1,1.76,1.76,0,0,1-1.73,1.37A1.74,1.74,0,0,1,15,68.14a4.93,4.93,0,0,1-.1-1q0-14,0-28.09c0-1.32.43-2.07,1.3-2.31a1.76,1.76,0,0,1,2.28,1.78c0,1.34,0,2.69,0,4Q18.51,47.85,18.51,53.12Z"/><path class="cls-1" d="M23.43,53.05q0-7.12,0-14.25c0-1.23.55-2,1.54-2.08a1.68,1.68,0,0,1,1.94,1.36A5.44,5.44,0,0,1,27,39.14q0,14,0,27.92a6,6,0,0,1-.07,1,1.76,1.76,0,0,1-1.76,1.52A1.78,1.78,0,0,1,23.47,68a5.82,5.82,0,0,1,0-.9Q23.43,60.09,23.43,53.05Z"/><path class="cls-1" d="M35.48,53.15q0,6.92,0,13.84c0,.22,0,.44,0,.66a1.78,1.78,0,1,1-3.56.15,6.09,6.09,0,0,1,0-.74q0-13.92,0-27.84A5.59,5.59,0,0,1,32,38a1.73,1.73,0,0,1,3.31-.14,4.29,4.29,0,0,1,.15,1.22Q35.48,46.11,35.48,53.15Z"/><path class="cls-1" d="M43.89,53.08q0,7,0,13.92c0,.22,0,.44,0,.66a1.81,1.81,0,0,1-1.76,1.9,1.83,1.83,0,0,1-1.8-1.78,7.15,7.15,0,0,1,0-.82q0-13.84,0-27.67a6.12,6.12,0,0,1,.11-1.22,1.73,1.73,0,0,1,3.35-.12,4.44,4.44,0,0,1,.12,1.14Q43.89,46.08,43.89,53.08Z"/></g></g></svg>