<svg xmlns="http://www.w3.org/2000/svg" viewBox="0 0 83.49 72.96"><defs><style>.cls-1{fill:#292929;}</style></defs><title>burger</title><g id="Слой_2" data-name="Слой 2"><g id="Слой_1-2" data-name="Слой 1"><path class="cls-1" d="M58.68,17.94c1.17-1.25,2.62-1.73,3.23-1.08s.16,2.19-1,3.44S58.28,22,57.67,21.38,57.51,19.19,58.68,17.94Z"/><path class="cls-1" d="M54.84,11c1.17,1.25,1.63,2.79,1,3.44s-2.06.17-3.23-1.08-1.63-2.79-1-3.44S53.67,9.76,54.84,11Z"/><path class="cls-1" d="M40.19,10.57c.61-.65,2.06-.17,3.23,1.08s1.63,2.79,1,3.44-2.06.17-3.23-1.08S39.58,11.22,40.19,10.57Z"/><path class="cls-1" d="M29.47,10.57c.61-.65,2.06-.17,3.23,1.08s1.63,2.79,1,3.44-2.06.17-3.23-1.08S28.86,11.22,29.47,10.57Z"/><path class="cls-1" d="M36.41,17.94c1.17-1.25,2.62-1.73,3.23-1.08s.16,2.19-1,3.44S36,22,35.4,21.38,35.24,19.19,36.41,17.94Z"/><path class="cls-1" d="M22.58,18.35c1.17-1.25,2.62-1.73,3.23-1.08s.16,2.19-1,3.44-2.62,1.73-3.23,1.08S21.41,19.6,22.58,18.35Z"/><path class="cls-1" d="M47.83,17.94c1.17-1.25,2.62-1.73,3.23-1.08s.16,2.19-1,3.44S47.43,22,46.81,21.38,46.66,19.19,47.83,17.94Z"/><path class="cls-1" d="M5.52,45.22V41.49A6.8,6.8,0,0,1,0,35a6.81,6.81,0,0,1,5.56-6.49A25.66,25.66,0,0,1,8.43,18.19a30.34,30.34,0,0,1,7.85-9.53A37.31,37.31,0,0,1,27.77,2.31a43.42,43.42,0,0,1,28,0A37.32,37.32,0,0,1,67.21,8.65a30.34,30.34,0,0,1,7.85,9.53,25.66,25.66,0,0,1,2.87,10.34A6.81,6.81,0,0,1,83.49,35a6.82,6.82,0,0,1-5.63,6.5v3.67a6.57,6.57,0,0,1,0,13V64a7.24,7.24,0,0,1-1,3.73,9.37,9.37,0,0,1-2.64,2.82A13.91,13.91,0,0,1,66.1,73H17.27A13.91,13.91,0,0,1,9.2,70.53a9.36,9.36,0,0,1-2.64-2.82,7.24,7.24,0,0,1-1-3.73V58.17a6.56,6.56,0,0,1,0-13ZM74.7,41.68h-66V45h66Zm-33-38.32c-17.53,0-31.92,11.06-33,25h66C73.66,14.43,59.28,3.36,41.74,3.36ZM80.32,35c0-1.79-1.85-3.3-4-3.3H7.21c-2.19,0-4,1.51-4,3.3s1.85,3.3,4,3.3H76.28C78.47,38.32,80.32,36.81,80.32,35ZM11,67.74a11,11,0,0,0,6.3,1.86H66.1a11,11,0,0,0,6.3-1.86A4.79,4.79,0,0,0,74.7,64V58.35H67.84l-2.6,5.83a1.58,1.58,0,0,1-1.43,1A1.49,1.49,0,0,1,63.2,65l-15-6.66h-19c0,.17,0,.35,0,.54a7.41,7.41,0,0,1-1.5,4.22,3.52,3.52,0,0,1-2.71,1.25,3.62,3.62,0,0,1-2.78-1.27,8.34,8.34,0,0,1-1.61-4.74H17.46c-.05.7-.14,1.56-.29,2.41a10.85,10.85,0,0,1-1,3.12,3.27,3.27,0,0,1-2.91,2A3,3,0,0,1,11,64.84c-.91-1-1.44-2.72-1.62-5.18,0-.46-.05-.9-.06-1.3H8.68V64A4.79,4.79,0,0,0,11,67.74Zm53.37-9.39H56.39L63,61.3ZM7.21,55H10.9a1.54,1.54,0,0,1,1.15.53,1.74,1.74,0,0,1,.42,1.26,21.8,21.8,0,0,0,.06,2.92,5.78,5.78,0,0,0,.74,2.83,6.24,6.24,0,0,0,.87-2.89,24.17,24.17,0,0,0,.22-3A1.63,1.63,0,0,1,16,55h6.14a1.54,1.54,0,0,1,1.15.53,1.74,1.74,0,0,1,.43,1.25c-.07,1.18.13,3.28.78,4a.56.56,0,0,0,.47.21.45.45,0,0,0,.39-.18c.62-.71.79-2.83.71-4a1.74,1.74,0,0,1,.42-1.27A1.54,1.54,0,0,1,27.6,55H76.28c2.19,0,4-1.51,4-3.3s-1.85-3.3-4-3.3H7.21c-2.19,0-4,1.51-4,3.3S5,55,7.21,55Z"/></g></g></svg>