<svg xmlns="http://www.w3.org/2000/svg" viewBox="0 0 67.29 93.33"><defs><style>.cls-1{fill:#292929;}</style></defs><title>cold-drink</title><g id="Слой_2" data-name="Слой 2"><g id="Слой_1-2" data-name="Слой 1"><path class="cls-1" d="M25.55,19.59c-.52-3.52-.93-7-1.54-10.35-.49-2.69-3.26-4.81-6-5-3.42-.28-6.83-.7-10.25-1C5.9,3,4,2.87,2.19,2.71c-.39,0-.77-.13-1.16-.19C0,2.38-.09,1.69,0,.92S.84,0,1.53,0c3.6.31,7.21.63,10.81,1a64.09,64.09,0,0,1,7.45.91,9.17,9.17,0,0,1,7.08,8.3c.34,3.11.86,6.21,1.32,9.39H64.13c2.36,0,3.48,1.48,3.08,3.79-.36,2.11-.52,4.25-.77,6.38-.33,2.77-.68,5.53-1,8.3-.25,2.09-.47,4.19-.72,6.28-.33,2.77-.67,5.53-1,8.29-.25,2.09-.48,4.19-.73,6.28s-.54,4.32-.8,6.48-.47,4.12-.72,6.18c-.34,2.84-.7,5.67-1,8.51-.25,2.09-.47,4.19-.7,6.29-.16,1.42-.25,2.85-.48,4.26-.32,1.95-1.34,2.7-3.49,2.7H22.66c-2.27,0-3.27-.77-3.56-3-.37-2.76-.59-5.55-.91-8.31s-.72-5.53-1-8.29-.58-5.47-.9-8.21-.7-5.53-1-8.29c-.25-2.06-.46-4.12-.7-6.18-.34-2.87-.7-5.74-1-8.62-.24-2.09-.45-4.19-.7-6.29-.33-2.8-.69-5.6-1-8.41-.2-1.78-.41-3.56-.5-5.34A2.51,2.51,0,0,1,14,19.59c3.46,0,6.92,0,10.38,0Zm31,71.14,6.74-56.91-.55.29c-2.3,1.29-4.61,2.57-6.89,3.89a.94.94,0,0,0-.37.8,2.73,2.73,0,0,1-.75,2.77C53,43.42,51.21,45.25,49.33,47A3,3,0,0,1,45,46.73c-1.33-1.32-2.63-2.67-4-4s-2.62-2.55-1.68-4.63l-9-3.63a11.29,11.29,0,0,0,0,1.18c.57,4.2,1.16,8.4,1.72,12.61.13,1,.44,1.61,1.55,1.75a17.74,17.74,0,0,1,2.9.72,3.09,3.09,0,0,1,2.09,3.78c-.53,2.17-1,4.35-1.58,6.52a3.25,3.25,0,0,1-2.38,2.75,1.27,1.27,0,0,0-.39.26c.13.77.26,1.47.35,2.18.38,2.86.75,5.73,1.14,8.6.32,2.37.69,4.73,1,7.09a45,45,0,0,1,.48,4.69,1.63,1.63,0,0,1-1,1.26c-.4.08-1-.44-1.39-.81-.19-.17-.17-.6-.22-.91-.24-1.8-.46-3.61-.71-5.41-.4-2.93-.83-5.86-1.24-8.79-.37-2.69-.71-5.38-1.12-8.06,0-.23-.44-.5-.72-.58-1.64-.46-3.32-.82-5-1.31a3.08,3.08,0,0,1-2.27-3.44q.85-3.63,1.85-7.23c.52-1.88,2-2.74,4-2.42l-2-14.83a30.78,30.78,0,0,0-4.88,0,66.72,66.72,0,0,0-6.7,1.68,1,1,0,0,0-.5.77,18.7,18.7,0,0,0,.23,2.13c.34,2.84.69,5.67,1,8.51.24,2.06.46,4.12.7,6.18.34,2.84.69,5.67,1,8.51.25,2.09.48,4.19.73,6.28s.53,4.33.78,6.49.46,4.19.7,6.28c.34,2.87.72,5.74,1,8.62.09.9.36,1.2,1.3,1.19,10.06,0,20.11,0,30.17,0Zm8.12-68.47H28.52c.43,3.08.83,6.08,1.29,9.07,0,.24.4.52.67.61,1.2.43,2.45.74,3.64,1.2,2,.77,4,1.62,5.92,2.45a1.65,1.65,0,0,0,2.16-.48c.87-1,1.86-1.91,2.81-2.85a3.11,3.11,0,0,1,4.58,0c1.14,1.11,2.23,2.26,3.39,3.34a1.35,1.35,0,0,0,1.09.3,21.32,21.32,0,0,0,8.74-5.26c.39-.38.93-.82,1-1.29C64.17,27,64.4,24.67,64.69,22.25Zm-50.93-.07,1.27,11A25.93,25.93,0,0,1,27,31.39a.87.87,0,0,0,.08-.3c-.36-2.83-.71-5.66-1.11-8.48,0-.17-.4-.41-.62-.41C21.55,22.18,17.77,22.19,13.76,22.19ZM53.11,39.65l-.1-.46a4.62,4.62,0,0,0-1.34-.1A23.62,23.62,0,0,1,42.72,39a2.94,2.94,0,0,0-.92.16c.09.32.08.72.28.93,1.52,1.58,3.07,3.13,4.66,4.64a1.07,1.07,0,0,0,1,.07C49.59,43.13,51.34,41.38,53.11,39.65Zm-21.91,21a8.35,8.35,0,0,1-.22-.84c-.3-2.37-.63-4.74-.87-7.12a1.19,1.19,0,0,0-1.38-1.14c-.28,0-.7.57-.8,1-.57,2.05-1.08,4.12-1.55,6.19a1,1,0,0,0,.4.88C28.16,59.94,29.58,60.24,31.19,60.62Zm2.68.67c.26-.28.47-.41.51-.57C35,58.49,35.52,56.25,36,54a1,1,0,0,0-.53-.83c-.88-.29-1.81-.45-2.82-.67ZM50.1,36.73l.07-.26c-.79-.77-1.56-1.56-2.39-2.3C47.6,34,47.1,33.9,47,34c-.86.77-1.66,1.61-2.47,2.43l.12.29Z"/><path class="cls-1" d="M50.32,80.6l-4.7-1.12c-.79-.19-1.58-.41-2.37-.61a3.24,3.24,0,0,1-2.47-4.09c.54-2.13,1.09-4.27,1.63-6.4s2.09-3.19,4.24-2.66,4.18,1.14,6.3,1.6,3.1,2,2.62,4.23-1.1,4.48-1.7,6.71C53.45,79.85,52.39,80.61,50.32,80.6Zm2.82-10.17a3,3,0,0,0-.84-.58c-2-.54-4.06-1-6.09-1.54-.68-.17-1.12,0-1.3.81-.47,2.07-1,4.12-1.56,6.19-.13.52,0,.86.6,1,1.59.37,3.16.83,4.74,1.23,2.49.63,2.51.63,3.17-1.9C52.28,74,52.67,72.33,53.13,70.43Z"/></g></g></svg>