<svg xmlns="http://www.w3.org/2000/svg" viewBox="0 0 84.58 78.04"><defs><style>.cls-1{fill:#292929;}</style></defs><title>desert</title><g id="Слой_2" data-name="Слой 2"><g id="Слой_1-2" data-name="Слой 1"><path class="cls-1" d="M28.06,78c-7.27,0-14.55,0-21.82,0C1.86,78,0,76.19,0,71.78q0-22,0-43.91c0-4,1.93-5.93,6-6,2.36-.07,4.74.11,7.09-.09.78-.06,1.56-.87,2.21-1.47,1.34-1.26,2.35-3.21,3.91-3.82C33,11,46.79,5.79,60.63.56c3.61-1.36,6.16-.22,7.55,3.39q8,20.71,15.82,41.47c1.42,3.76.25,6.26-3.51,7.71C73.06,56,65.62,58.85,58.16,61.62a2.53,2.53,0,0,0-2,2.86c.12,2.62.1,5.26,0,7.89-.1,3.7-2.07,5.63-5.79,5.65-7.45,0-14.9,0-22.35,0Zm0-2.72c7.35,0,14.71,0,22.06,0,2.33,0,3.33-1,3.33-3.32q0-22.06,0-44.12c0-2.36-1.08-3.27-3.37-3.26q-21.93.06-43.86,0c-2.44,0-3.48,1-3.47,3.44,0,14.53,0,29.07,0,43.6,0,3,.65,3.63,3.76,3.64C13.68,75.33,20.86,75.32,28,75.32ZM56.44,59c.21,0,.4.14.53.09Q68.51,54.73,80,50.33c1.88-.72,2.09-2.21,1.45-3.9Q73.59,25.71,65.66,5c-.76-2-2-2.7-4.1-1.89C47.76,8.4,33.93,13.64,20.14,19c-.93.36-1.61,1.36-2.41,2.07l.43.58H37.64c-.38-1.06-.64-1.88-1-2.68-.79-1.95-.19-3.16,1.79-3.86,2.31-.81,4.6-1.68,6.87-2.62,2-.82,3.14-.19,3.83,1.79s1.56,4.09,2.37,6.12c.22.56.43,1.38.86,1.55,4,1.61,3.86,5,3.83,8.38,0,3.74,0,7.49,0,11.44,2.75-.73,3.9.53,4.49,2.68a28.36,28.36,0,0,0,1.1,3c2.45,6.13,2.58,6-3.58,8.1C56.29,56.14,55.8,57.2,56.44,59ZM39,17.85c.83,1.45,1.35,3.54,2.26,3.73,2.42.5,5,.17,7.84.17L46.44,15ZM56.22,53.3l4.28-1.62c-.81-2.15-1.48-4-2.26-5.86-.19-.45-.78-.74-1.19-1.1-.28.48-.78.95-.8,1.44C56.17,48.34,56.22,50.52,56.22,53.3Z"/><path class="cls-1" d="M37.11,49.86c-.1-7.09-.1-6.6,6.55-6.61,7.27,0,6.9-.38,6.87,6.82,0,6.6,0,6.58-6.55,6.6C36.67,56.69,37.08,57.07,37.11,49.86Zm10.42,3.85V46.19H40.11v7.52Z"/><path class="cls-1" d="M43.77,27.53c6.76,0,6.76,0,6.76,6.66s0,6.76-6.65,6.76-6.72,0-6.76-6.66C37.07,27.1,36.87,27.47,43.77,27.53Zm-3.66,2.9v7.49h7.47V30.43Z"/><path class="cls-1" d="M44,59c6.7,0,6.61-.5,6.59,6.57,0,7.33.39,6.8-6.86,6.8-6.85,0-6.59.43-6.59-6.56C37.1,58.45,36.83,59,44,59Zm3.65,2.89H40.15v7.48h7.47Z"/><path class="cls-1" d="M12.42,27.53c6.91-.05,6.65-.37,6.64,6.5,0,7.32.44,7-7,6.92-6.37,0-6.37,0-6.37-6.27,0-.18,0-.35,0-.53C5.59,27.05,5.36,27.49,12.42,27.53ZM16.12,38V30.42H8.68V38Z"/><path class="cls-1" d="M28.15,27.53c7.08-.07,6.65-.31,6.66,6.75S35.12,41,28,41c-6.66,0-6.63,0-6.64-6.78C21.38,27.11,21,27.48,28.15,27.53Zm3.71,10.41v-7.5H24.37v7.5Z"/><path class="cls-1" d="M28.19,43.26c6.9-.08,6.63-.34,6.61,6.54,0,7.19.56,6.9-6.81,6.87-6.75,0-6.63.58-6.61-6.54C21.41,42.71,21,43.23,28.19,43.26Zm3.66,2.86H24.41v7.53h7.45Z"/><path class="cls-1" d="M34.79,65.66c.07,7.28.27,6.73-6.67,6.72s-6.76.54-6.74-6.64S21,59,28.05,59,34.86,58.61,34.79,65.66Zm-2.95,3.83v-7.6H24.42v7.6Z"/><path class="cls-1" d="M12.35,43.26c7-.07,6.72-.42,6.71,6.7s.46,6.73-6.7,6.71S5.66,57,5.66,50,5.27,43.2,12.35,43.26Zm3.79,3H8.66v7.45h7.48Z"/><path class="cls-1" d="M19,65.79c.07,7.08.31,6.6-6.51,6.58-7.23,0-6.88.64-6.89-6.76,0-7.06-.24-6.61,6.54-6.6C19.44,59,19.1,58.49,19,65.79Zm-2.9,3.7V62H8.66v7.52Z"/><path class="cls-1" d="M67.47,52c-.66-.59-1.6-1.06-1.92-1.8-1.16-2.63-2.13-5.34-3.12-8a2.23,2.23,0,0,1,1.49-3.12c2.6-1,5.2-2,7.81-3a2.2,2.2,0,0,1,3.15,1.4c1,2.59,2.13,5.16,2.95,7.82.25.81-.08,2.46-.63,2.72C74.14,49.5,70.94,50.64,67.47,52Zm7.74-6-2.79-7.32L65.14,41.6l2.78,7.27Z"/><path class="cls-1" d="M61.66,37.4a10.69,10.69,0,0,1-1.9-2.27c-1-2.39-1.84-4.89-2.83-7.31-.72-1.76-.13-2.87,1.52-3.51,2.51-1,5.05-1.9,7.57-2.88,1.49-.58,2.6-.19,3.19,1.28,1.07,2.67,2.17,5.33,3,8.07.23.73-.07,2.27-.56,2.5C68.53,34.75,65.27,36,61.66,37.4Zm8-6L66.8,24.06l-7.28,2.85,2.81,7.21Z"/><path class="cls-1" d="M56.21,22.66c-.67-.68-1.59-1.24-2-2.05-1.1-2.47-2-5-3-7.58-.63-1.72,0-2.87,1.7-3.49,2.46-.9,4.93-1.8,7.36-2.78A2.27,2.27,0,0,1,63.7,8.2c1,2.6,2.11,5.2,2.94,7.86.23.74-.08,2.27-.58,2.51C63,20,59.79,21.21,56.21,22.66Zm7.8-6L61.19,9.35l-7.26,2.83,2.79,7.26Z"/></g></g></svg>