<svg xmlns="http://www.w3.org/2000/svg" viewBox="0 0 54.11 82.89"><defs><style>.cls-1{fill:#292929;}</style></defs><title>fresh</title><g id="Слой_2" data-name="Слой 2"><g id="Слой_1-2" data-name="Слой 1"><path class="cls-1" d="M1,0C3,.49,5.1,1,7.16,1.46Q13.07,2.79,19,4.08a2.29,2.29,0,0,1,1.66,1.27c.68,1.31,1.4,2.6,2.13,3.95,6.34-2.29,12.37-1.76,17.93,2s8.31,9.1,9,15.64c3,.66,4.49,2.19,4.44,4.6a3.78,3.78,0,0,1-2,3.5,21.74,21.74,0,0,1-4,1.13c-.15,1.71-.33,3.66-.5,5.61Q46.82,51,46,60.18,45.27,69.08,44.51,78c-.1,1.13-.19,2.26-.31,3.38a1.49,1.49,0,0,1-1.65,1.51H17.22a1.5,1.5,0,0,1-1.66-1.52c-.4-4.46-.77-8.92-1.15-13.38Q13.72,60,13,52q-.6-7-1.2-13.94c-.06-.67-.12-1.34-.19-2.09-.67,0-1.34-.05-2-.12a4.38,4.38,0,0,1-.36-8.67L10.1,27a21,21,0,0,1,10-16.39c-.63-1.16-1.22-2.31-1.86-3.42a1.2,1.2,0,0,0-.73-.4L.82,3.07,0,2.86.49,0ZM16,52.06l2.4,27.85h23l2.4-27.85ZM46.64,27c-.36-8-7.26-16.36-17.13-16.1-10.37.27-16.26,9.42-16.33,16.1ZM15.73,49H44.05l1.13-13.1H14.6ZM29.87,32.91H49a6.15,6.15,0,0,0,1,0,1.42,1.42,0,0,0,.14-2.79A4.9,4.9,0,0,0,49,30H10.84c-.22,0-.43,0-.65,0a1.53,1.53,0,0,0-1.6,1.48c0,.84.62,1.4,1.61,1.45.24,0,.49,0,.73,0Z"/></g></g></svg>