<svg xmlns="http://www.w3.org/2000/svg" viewBox="0 0 70.15 79.73"><defs><style>.cls-1{font-size:12px;font-family:MyriadPro-Regular, Myriad Pro;}.cls-1,.cls-2{fill:#292929;}</style></defs><title>hot-drink</title><g id="Слой_2" data-name="Слой 2"><g id="Слой_1-2" data-name="Слой 1"><text class="cls-1" transform="translate(36.31 41.73)">|</text><path class="cls-2" d="M61.58,37.58A11.74,11.74,0,0,1,67,40.71a11.17,11.17,0,0,1-7.92,18.93c-.94,0-1.89,0-2.83,0-.55,0-.74.18-.86.69a13.71,13.71,0,0,1-6.59,8.88,13.57,13.57,0,0,1-6.93,1.86c-4.38,0-8.77,0-13.15,0a13.87,13.87,0,0,1-14-10.82c-2-7.42-4-14.83-6-22.25a4.47,4.47,0,0,1,4.51-5.93H56.86a4.45,4.45,0,0,1,4.72,5C61.57,37.24,61.58,37.39,61.58,37.58Zm-48-.6c0,.26.07.46.12.66q2.93,10.9,5.88,21.8a9,9,0,0,0,8.84,6.74h13.3a9,9,0,0,0,8.78-6.72q3-10.93,5.87-21.88c0-.18.06-.37.1-.59Zm46.61,5.37-3.3,12.31c4.14.67,7.47-1.38,8.18-5A6.27,6.27,0,0,0,60.23,42.35Z"/><path class="cls-2" d="M35,79.73H3.46c-.41,0-.82,0-1.22-.05A2.38,2.38,0,0,1,0,77.31a2.41,2.41,0,0,1,2.07-2.45,5.82,5.82,0,0,1,1-.07h64a3,3,0,0,1,2.39.78A2.36,2.36,0,0,1,70,78.11a2.23,2.23,0,0,1-2,1.56,17.57,17.57,0,0,1-1.76.06Z"/><path class="cls-2" d="M33.73,8.17a15.17,15.17,0,0,1-1.11,6.06,14.18,14.18,0,0,0,0,10.85,2.37,2.37,0,0,1-.72,2.76,2.3,2.3,0,0,1-2.71.24,3.11,3.11,0,0,1-1.15-1.34,17.66,17.66,0,0,1-.35-13.25,15,15,0,0,0,.34-10.24A2.39,2.39,0,0,1,29.68.12a2.44,2.44,0,0,1,3.1,1.83A21.53,21.53,0,0,1,33.73,8.17Z"/><path class="cls-2" d="M43.54,8.2a16.32,16.32,0,0,1-1.27,6.61,13.63,13.63,0,0,0,.15,10.06,2.46,2.46,0,1,1-4.53,1.92,18.17,18.17,0,0,1-.39-13.2A13.67,13.67,0,0,0,38.6,7.1c-.17-1.36-.5-2.7-.79-4A2.48,2.48,0,0,1,39.06.28a2.4,2.4,0,0,1,3,.58,2.58,2.58,0,0,1,.51.92A20.73,20.73,0,0,1,43.54,8.2Z"/></g></g></svg>