<svg xmlns="http://www.w3.org/2000/svg" viewBox="0 0 91.01 62.73"><defs><style>.cls-1{fill:#292929;}</style></defs><title>hot-dog</title><g id="Слой_2" data-name="Слой 2"><g id="Слой_1-2" data-name="Слой 1"><path class="cls-1" d="M18.34,2.58A9.46,9.46,0,0,1,26.6,1.17a6.93,6.93,0,0,1,2.69,1.47A105.35,105.35,0,0,0,71,24.75c1.76.48,3.54.9,5.31,1.3a8,8,0,0,1,6.25,8.2c0,.09,0,.17,0,.27.54.19,1.07.36,1.58.57a11.43,11.43,0,0,1,5.69,5,9.18,9.18,0,0,1-2,11.34,11.21,11.21,0,0,1-6.07,2.83.6.6,0,0,0-.59.5,11,11,0,0,1-9.28,7.86,22.1,22.1,0,0,1-5.67-.32A108.15,108.15,0,0,1,32.18,51.2,109.33,109.33,0,0,1,11.27,37.46a78.67,78.67,0,0,1-7.2-6.83,14.65,14.65,0,0,1-3.83-7,9,9,0,0,1,2.23-8.39c.2-.22.16-.36,0-.57A12.32,12.32,0,0,1,.81,9.5,8.22,8.22,0,0,1,7.08.56a12.13,12.13,0,0,1,11.17,2ZM69.66,60.51c3.31,0,5.63-.92,7.44-2.89a7.31,7.31,0,0,0,2.06-6.82,7.11,7.11,0,0,0-5.83-5.54,137,137,0,0,1-25.59-8.36A131.41,131.41,0,0,1,15,16.13a6.45,6.45,0,0,0-2.3-1.28,9,9,0,0,0-5.14-.07,6.69,6.69,0,0,0-5.16,7.88,11.71,11.71,0,0,0,3.34,6.4c2,2.06,4.07,4.09,6.24,6A99.56,99.56,0,0,0,29.59,47.28,109.42,109.42,0,0,0,63.36,59.59C65.66,60,68,60.27,69.66,60.51ZM81.76,52a8.49,8.49,0,0,0,5.7-3.55,6.53,6.53,0,0,0,.21-7.63A9.07,9.07,0,0,0,82,36.75,167.26,167.26,0,0,1,51.45,26.06,160,160,0,0,1,17.31,4.67,10.06,10.06,0,0,0,11,2.28,9.88,9.88,0,0,0,6.83,3,6,6,0,0,0,3.12,10a10.84,10.84,0,0,0,1.4,3.61,11.22,11.22,0,0,1,4.84-1.36,9.67,9.67,0,0,1,7.07,2.19,133.34,133.34,0,0,0,11.5,8.86A128.41,128.41,0,0,0,50.7,35.71a138.41,138.41,0,0,0,23.4,7.41,9.34,9.34,0,0,1,6.82,5.79A23.33,23.33,0,0,1,81.76,52ZM20.16,4.09A161,161,0,0,0,80.34,34a7.79,7.79,0,0,0,0-.83,6,6,0,0,0-4.65-5c-2.37-.57-4.75-1.13-7.1-1.81A106.76,106.76,0,0,1,28.25,4.7a6.54,6.54,0,0,0-5.39-1.58A6.27,6.27,0,0,0,20.16,4.09Z"/><path class="cls-1" d="M53.1,32.6c-3.55.34-6.27-1.36-8.76-3.59-1-.93-2-1.94-3-2.93a6,6,0,0,0-4.72-1.89c-3.33.12-6-1.4-8.18-3.71a7.5,7.5,0,0,1-1.39-2.18,8.65,8.65,0,0,0-7.53-5.38A8.26,8.26,0,0,1,12.77,8.3,6.72,6.72,0,0,1,12,4.58a1.13,1.13,0,1,1,2.24.17,5.62,5.62,0,0,0,2.44,4.8,5.14,5.14,0,0,0,2.85,1.08A11.78,11.78,0,0,1,27,14.11a10.38,10.38,0,0,1,2,3.14c1.23,2.67,3.48,4,6.23,4.64a5.14,5.14,0,0,0,1.36.06A8.16,8.16,0,0,1,43,24.52c1.08,1.08,2.16,2.18,3.31,3.18a20.67,20.67,0,0,0,2.6,1.81,6.66,6.66,0,0,0,3.92.81,14.24,14.24,0,0,1,5.36.63A8.8,8.8,0,0,1,63.22,35a4.56,4.56,0,0,0,5.11,2.24c.6-.13,1.2-.29,1.79-.48a8.47,8.47,0,0,1,6.16.38,10.94,10.94,0,0,1,4.11,2.9,3.79,3.79,0,0,1,1,2.38,1.1,1.1,0,0,1-1.18,1.14,1,1,0,0,1-1-.88,2.39,2.39,0,0,0-.73-1.38,9.19,9.19,0,0,0-5.12-2.66,6.63,6.63,0,0,0-2.66.29,15.63,15.63,0,0,1-3.32.63,6.23,6.23,0,0,1-6-3.19c-1.35-2.49-3.55-3.44-6.16-3.77A17.4,17.4,0,0,0,53.1,32.6Z"/></g></g></svg>