<svg xmlns="http://www.w3.org/2000/svg" viewBox="0 0 43.78 90.64"><defs><style>.cls-1{fill:#292929;}</style></defs><title>milkshake</title><g id="Слой_2" data-name="Слой 2"><g id="Слой_1-2" data-name="Слой 1"><path class="cls-1" d="M11.6,79.48c-1.29-3.05-2.6-6-3.76-9a25.18,25.18,0,0,1-1.76-9.22A37.65,37.65,0,0,0,3.32,47.13a39.09,39.09,0,0,1-3-10.48C.1,34.53.05,32.38,0,30.25a1.45,1.45,0,0,1,1.54-1.55c.57,0,1.13,0,1.7,0H33a3.63,3.63,0,0,0-3.64-4.53c-4.38,0-8.75,0-13.13,0H15.17v-3H28.49a3.6,3.6,0,0,0-3.12-4.53,3.66,3.66,0,0,0-2.58.53,5.67,5.67,0,0,1-6.41,0,3.89,3.89,0,0,0-4.3.22,3.74,3.74,0,0,0-1.39,3.94c.08.3.2.59.28.9A1.43,1.43,0,0,1,9.82,24.1a4.27,4.27,0,0,0-3.47,2.19L3.69,25A7,7,0,0,1,7,21.72c.26-.14.58-.52.57-.77a6.92,6.92,0,0,1,5.94-7.34,1.86,1.86,0,0,0,.26-.09A6.16,6.16,0,0,1,17.9,6.24a4.93,4.93,0,0,0-3.26-3.37L15.57.07a6.82,6.82,0,0,1,4.55,3.73,6.9,6.9,0,0,0,3,3.45c2.22,1.35,2.83,3.65,2.38,6.31a7.26,7.26,0,0,1,5.15,3.19l2.37-9c.56-2.13,1.11-4.26,1.69-6.38.33-1.2,1-1.56,2.19-1.26,1.8.44,3.6.89,5.4,1.35,1.33.34,1.69,1,1.33,2.29q-3.34,12.09-6.7,24.17c-.06.21-.1.42-.15.62s.12.12.17.12c1.87-.12,2.3.7,2.33,2.44A38.48,38.48,0,0,1,36.39,46a39.43,39.43,0,0,0-2.86,9.74,26.6,26.6,0,0,0-.28,3.57A34.81,34.81,0,0,1,29,76.8c-.43.8-.82,1.63-1.22,2.45a1.12,1.12,0,0,0,0,.28L30,80.92a9.56,9.56,0,0,1,4.66,7.18c.26,1.91-.3,2.54-2.22,2.54H6.68c-1.77,0-2.33-.6-2.13-2.37a9.42,9.42,0,0,1,4.37-7.15C9.79,80.55,10.69,80,11.6,79.48ZM3,31.74A30.83,30.83,0,0,0,5,42.91C6.32,46.66,8,50.32,8.54,54.31c.37,2.86.45,5.76.69,8.65.37,4.49,2.08,8.55,4.1,12.53a2.17,2.17,0,0,0,.07-.7q-.56-15.57-1.13-31.14a4.55,4.55,0,0,0-3.4-4.18,17.49,17.49,0,0,0-2.5-.26L5.67,36.5a6.37,6.37,0,0,1,4.44.21A35.25,35.25,0,0,1,13.88,39a7.23,7.23,0,0,1,5.75-2.74,7.42,7.42,0,0,1,5.91,2.93c3-3.17,6.4-3.77,10.35-1.78l.43-5.66ZM22.66,78.5c0-.36.06-.67.07-1q.31-8.34.62-16.69T24,44.05a4.34,4.34,0,0,0-1.78-3.95,4.07,4.07,0,0,0-4.53-.34A4.24,4.24,0,0,0,15.31,44q.49,13.91,1,27.81c.08,2.23.17,4.45.26,6.72Zm3.16-2.41a3.36,3.36,0,0,0,.33-.37,31.3,31.3,0,0,0,4.06-15.51,32.78,32.78,0,0,1,2-11.73c.84-2.3,1.63-4.62,2.5-6.91A1.09,1.09,0,0,0,34.22,40,4.71,4.71,0,0,0,27,43.8q-.39,9.81-.73,19.62C26.11,67.57,26,71.72,25.82,76.09ZM31.51,87.6a6.33,6.33,0,0,0-2.82-4c-.93-.59-1.86-1.17-2.83-1.7a3,3,0,0,0-1.32-.36c-3.27,0-6.55,0-9.82,0a1.88,1.88,0,0,0-.91.13c-1.32.79-2.67,1.55-3.91,2.46A5.59,5.59,0,0,0,7.76,87.6ZM22.65,12.09a3,3,0,1,0-3,3A3,3,0,0,0,22.65,12.09ZM38.79,10c-1.17.47-2.17.85-3.15,1.26-.19.08-.43.23-.47.4-.49,1.77-.95,3.55-1.46,5.52,1.2-.49,2.21-.9,3.21-1.34a.83.83,0,0,0,.39-.49C37.79,13.6,38.25,11.88,38.79,10ZM37.33,3.31,36.18,7.74c1.21-.48,2.26-.89,3.29-1.33A.83.83,0,0,0,39.88,6c.2-.59.35-1.19.54-1.87ZM35,23.72l1.14-4.15-.19-.13c-1,.92-3,.49-3.44,2.25Z"/></g></g></svg>