<svg xmlns="http://www.w3.org/2000/svg" viewBox="0 0 83.36 49.61"><defs><style>.cls-1{fill:#292929;}</style></defs><title>sandwitch</title><g id="Слой_2" data-name="Слой 2"><g id="Слой_1-2" data-name="Слой 1"><path class="cls-1" d="M1,38.31C-.66,35-.27,32.95,2.46,30.21a.93.93,0,0,0,.23-.65c-.06-.82-.17-1.65-.27-2.53a1,1,0,0,0-.28-.09C.19,26.82,0,26.64,0,24.73q0-3.22,0-6.43c0-1.45.2-1.72,1.58-2.07L54.3,3.07c4-1,7.94-2,11.89-3A2,2,0,0,1,68.4.77q7,7.67,14,15.3a3.26,3.26,0,0,1,1,2.48c-.07,2.11,0,4.22,0,6.33,0,1.7-.29,2-2,2-.19,0-.37,0-.5.05-.06,1-.13,1.88-.15,2.8a.86.86,0,0,0,.3.53c2.56,2.42,3,4.77,1.4,8,.91.46,1,1.27.91,2.18a9.76,9.76,0,0,1-9.77,9.13q-31.91-.12-63.82,0A9.74,9.74,0,0,1,0,40.4C0,39.52.06,38.74,1,38.31ZM13,16.14v.09H78.87c-4.05-4.43-8-8.76-12-13A1.46,1.46,0,0,0,65.72,3q-17.39,4.3-34.78,8.66ZM2.92,41a6.54,6.54,0,0,0,6,5.85c3.71.08,7.42,0,11.13,0,17.82,0,35.63,0,53.45,0a6.88,6.88,0,0,0,6.83-5.2,3.76,3.76,0,0,0,.06-.6,1,1,0,0,0-.24-.09c-7.26,0-14.52,0-21.78,0a1.11,1.11,0,0,0-.76.54c-.56,1-1,2.09-1.59,3.06a2,2,0,0,1-1.28.93,1.94,1.94,0,0,1-1.3-.89A14.18,14.18,0,0,1,52.14,42a1.49,1.49,0,0,0-1.67-1Q27.3,41,4.13,41Zm77.7-21.94H2.76v5.11H80.62ZM50.24,38.26c-.57-1.15-1.11-2.13-1.56-3.15-.25-.57-.57-.61-1.12-.49a23.67,23.67,0,0,1-3.31.52c-3.85.27-7.47-.81-11-2a16.8,16.8,0,0,0-7.7-1.2A52.47,52.47,0,0,0,19,33.45C13.9,34.84,8.86,35.77,4.13,32.36a3.19,3.19,0,0,0-1.24,3.71c.51,1.5,1.72,2.24,3.72,2.24H49.12C49.43,38.31,49.74,38.29,50.24,38.26ZM47.1,32c-.7-1.41-1.39-2.7-2-4a1.53,1.53,0,0,0-1.65-1.05q-18.48.05-37,0c-.22,0-.49-.07-.66,0s-.6.38-.62.6a3.1,3.1,0,0,0,1.6,3.33,10.07,10.07,0,0,0,3.07,1,18.46,18.46,0,0,0,8.67-1.11c3.93-1.35,7.92-2.16,12-1.13,2.45.61,4.84,1.43,7.27,2.1A17.21,17.21,0,0,0,47.1,32Zm7.66,9.29,7.05-14.13H47.7Zm8.68-11.33c1.76,1,3.5,1.84,5.14,2.87a6.43,6.43,0,0,0,9.14-2.59,7.6,7.6,0,0,0,.36-2.6c0-.45-.23-.72-.79-.72-3.93,0-7.87,0-11.8,0a1,1,0,0,0-.74.41C64.25,28.24,63.83,29.16,63.44,29.95Zm16.22,2.73a30.4,30.4,0,0,1-2.53,2.17,8.85,8.85,0,0,1-10.31,0,14.41,14.41,0,0,0-4.74-2.21l-2.8,5.62c.44,0,.74.06,1.05.06H77.2a3.2,3.2,0,0,0,3.19-2A3.16,3.16,0,0,0,79.65,32.68Z"/></g></g></svg>