<svg xmlns="http://www.w3.org/2000/svg" viewBox="0 0 88.89 74.55"><defs><style>.cls-1{fill:#292929;}</style></defs><title>sause</title><g id="Слой_2" data-name="Слой 2"><g id="Слой_1-2" data-name="Слой 1"><path class="cls-1" d="M46.07,12.44c-.18-.88-.36-1.76-.52-2.64a7.37,7.37,0,0,0-.13-1c-.23-.68-.52-1.34-.78-2-.56-1.49-1.13-3-1.67-4.47A1.61,1.61,0,0,1,43.47.43,1.72,1.72,0,0,1,45.58.3c5,3,10,6,14.34,10,1.48,1.37,2.77,2.94,4.17,4.41a1.6,1.6,0,0,0,.69.44,47.21,47.21,0,0,1,16,7.22,20.69,20.69,0,0,1,6.86,7.91A13.85,13.85,0,0,1,88.57,39,44.42,44.42,0,0,1,82.8,54,44,44,0,0,1,54.32,73.72a37.16,37.16,0,0,1-8.12.83c-2.71,0-5.43,0-8.13-.29A40.76,40.76,0,0,1,25.91,71a43.66,43.66,0,0,1-11.83-7.55A42.9,42.9,0,0,1,4,50.1a48.21,48.21,0,0,1-3.62-11C-.87,33.4,1.19,28.89,5,25a35,35,0,0,1,12.38-7.7,60.35,60.35,0,0,1,12.81-3.5c1-.16,2-.35,3-.46q2.6-.27,5.2-.44C40.92,12.7,43.39,12.59,46.07,12.44ZM67.66,24.27a11,11,0,0,1-3.85,6.44,21.81,21.81,0,0,1-7.19,3.9,35.58,35.58,0,0,1-9,1.88,1.29,1.29,0,0,1-1.57-1.16,1.69,1.69,0,0,1,1.2-1.9c.91-.17,1.83-.27,2.75-.4a27.31,27.31,0,0,0,9.36-3,9.49,9.49,0,0,0,4.86-5.33A4.28,4.28,0,0,0,64.52,22a20.44,20.44,0,0,0-5-7.8,45.6,45.6,0,0,0-7-5.85c-1.39-.95-2.81-1.85-4.23-2.77-.2-.13-.43-.23-.53-.29.46,2.1,1,4.18,1.34,6.3a9.7,9.7,0,0,1,.05,3.35,8.75,8.75,0,0,1-4.94,6.52,20.72,20.72,0,0,1-8.38,1.79c-2,.1-4,.07-5.92.3a44.25,44.25,0,0,0-6.64,1.22,20,20,0,0,0-11.58,7.87A5.67,5.67,0,0,0,12.28,40a17.43,17.43,0,0,0,3.79,2.71,49.14,49.14,0,0,0,15.64,5,70.88,70.88,0,0,0,7.78.95,75.23,75.23,0,0,0,9,.07,85.27,85.27,0,0,0,8.62-1.14,56.14,56.14,0,0,0,13.81-4,16.2,16.2,0,0,0,5.94-3.84,7.41,7.41,0,0,0,1.39-2.06,6.37,6.37,0,0,0-.63-5.31,14.36,14.36,0,0,0-4.75-5.13A26.86,26.86,0,0,0,67.66,24.27ZM6.85,48.69c.09.22.14.36.2.49A39.77,39.77,0,0,0,21.93,65.34a40,40,0,0,0,20.9,6,48.45,48.45,0,0,0,12.62-1.16A41.16,41.16,0,0,0,67.51,65,40.19,40.19,0,0,0,81.22,50.41c.3-.54.56-1.1.84-1.66a.66.66,0,0,0-.46.15,37,37,0,0,1-8.94,5.21,68.1,68.1,0,0,1-20,4.8,70.82,70.82,0,0,1-7.19.36c-2.75,0-5.51-.16-8.26-.33a50.69,50.69,0,0,1-5.48-.58c-2.5-.43-5-1-7.45-1.56A47,47,0,0,1,11.2,51.55C9.74,50.67,8.35,49.68,6.85,48.69Zm60-29.63c.27,1,.5,1.66,1.48,2.06A26.49,26.49,0,0,1,78.48,28a12.47,12.47,0,0,1,3.24,7.2,8.39,8.39,0,0,1-2.81,7,24.15,24.15,0,0,1-8.27,4.95,59.82,59.82,0,0,1-12.89,3.47c-3.35.52-6.7,1-10.07,1.28a70.64,70.64,0,0,1-8.06-.08,68.47,68.47,0,0,1-10.92-1.48,56.69,56.69,0,0,1-10.88-3.28A24,24,0,0,1,9.7,41.86,8.5,8.5,0,0,1,8.2,32.3,18.23,18.23,0,0,1,14,25.71C19.08,22,24.92,20.63,31.05,20.2c2.3-.16,4.62-.12,6.93-.31a11.68,11.68,0,0,0,5.47-1.67,5,5,0,0,0,2.14-2.62c-3.46.21-6.77.28-10.05.65A87.77,87.77,0,0,0,26.8,17.8a47.91,47.91,0,0,0-14,5.34,22.72,22.72,0,0,0-7.57,6.6,10.13,10.13,0,0,0-.58,11.44,17.87,17.87,0,0,0,5.12,5.53,44.53,44.53,0,0,0,15,6.86A75.12,75.12,0,0,0,39.8,56a70.07,70.07,0,0,0,11.4-.17c2.94-.28,5.88-.77,8.79-1.3a50.88,50.88,0,0,0,15.15-5.25,23.65,23.65,0,0,0,8.27-6.78c2.7-3.75,3.18-7.7.87-11.82a18.22,18.22,0,0,0-5-5.47,39.37,39.37,0,0,0-11.35-5.81C67.6,19.27,67.28,19.18,66.85,19.05Z"/></g></g></svg>