<svg xmlns="http://www.w3.org/2000/svg" viewBox="0 0 86.79 86.9"><defs><style>.cls-1{fill:#292929;}</style></defs><title>special</title><g id="Слой_2" data-name="Слой 2"><g id="Слой_1-2" data-name="Слой 1"><path class="cls-1" d="M43.35,86.89c-4,0-8,0-12,0a9.18,9.18,0,0,1-9.07-6.48,13.62,13.62,0,0,1-.32-3.58,1.48,1.48,0,0,1,.53-1.09c.9-.62.78-1.5.82-2.39.05-1.08.32-2.17.3-3.24A10.9,10.9,0,0,0,23,67.89a5,5,0,0,1-.14-1c0-1.22.12-2.42-.76-3.54-.74-.95-.33-2.09.24-3.08a20.3,20.3,0,0,1,12.78-9.75c4.08-1.1,8.25-.88,12.4-.67A20.6,20.6,0,0,1,58,53.32a20.05,20.05,0,0,1,6.51,7,3.13,3.13,0,0,1-.31,3.84A1.37,1.37,0,0,0,64,65a10.25,10.25,0,0,1-.64,4.55,1.2,1.2,0,0,0-.09.55q.16,2.11.35,4.21c0,.27,0,.65.21.78,1.62,1.25,1.44,2.92,1,4.58a9.25,9.25,0,0,1-9.23,7.19C51.5,86.91,47.42,86.89,43.35,86.89ZM62,62.09a2.22,2.22,0,0,0-.11-.35c-.14-.25-.27-.51-.43-.75a17.29,17.29,0,0,0-9.87-7.47c-4.42-1.33-9-.94-13.44-.58a16.48,16.48,0,0,0-11.12,5.78c-.88,1-1.59,2.13-2.5,3.37ZM24.79,77.62a6.09,6.09,0,0,0,5.81,6.23q12.81,0,25.62,0a5.81,5.81,0,0,0,2-.4c2.41-.9,4.15-3.59,3.78-5.81Zm35.69-6.19H26.36v3H60.49ZM31.3,65.21c1.11,1.31,1.61,3.13,3.61,3.1s2.41-1.83,3.51-3.1Zm8.53,3H47c-1.14-1.27-1.62-3.08-3.58-3.08S41,67,39.83,68.25Zm8.47-3.07c1.27,1.37,1.76,3.37,3.93,3.12,1.77-.21,2.25-1.87,3.28-3.12ZM29.72,68.32l.18-.25c-.83-.9-1.62-1.86-2.53-2.67A1.72,1.72,0,0,0,26,65.27c-.17,0-.28.67-.27,1A5.43,5.43,0,0,0,26,67.81a.82.82,0,0,0,.57.49C27.61,68.35,28.66,68.32,29.72,68.32ZM57,68.06l.15.27c.67,0,1.34,0,2,0,1.91,0,1.51.33,1.92-1.67a4.21,4.21,0,0,0-.24-1.45c-.51.1-1.18,0-1.51.32A29.68,29.68,0,0,0,57,68.06Z"/><path class="cls-1" d="M18.49,77.61v3a5.83,5.83,0,0,1-.66.08c-2.72,0-5.43,0-8.15,0-1.31,0-1.88-.65-2-2C7.5,75.07,7.22,71.43,7,67.8c-.15-2.32-.26-4.64-.42-7-.24-3.47-.51-6.95-.75-10.42-.16-2.29-.27-4.57-.42-6.86-.2-3.12-.41-6.23-.63-9.46H2a1.75,1.75,0,0,1-1.81-1c-.38-.83.1-1.37.63-1.85a10.78,10.78,0,0,0,3.76-6.35,10.25,10.25,0,0,0,.1-1.25,1.72,1.72,0,0,1,1.93-1.9h12V20.53q0-9.12,0-18.25C18.6.53,19.13,0,20.92,0h4.66c1.72,0,2.27.54,2.27,2.23q0,9.12,0,18.25v1.26h12c1.3,0,2,.61,2,1.84a9.81,9.81,0,0,0,3.2,7c.21.2.44.38.63.6.47.52,1,1,.67,1.85a1.75,1.75,0,0,1-1.87,1.06H41.69l-.85,12.45-2.9-.16.78-12.19h-31l2.9,43.42ZM5.35,31H41.11l-2.48-6.16H7.82Zm19.4-9.29V3.1h-3V21.7Z"/><path class="cls-1" d="M68.53,80.58V77.67H80.9l2.68-26.76c-.56.32-1,.53-1.39.8a14.25,14.25,0,0,1-8.91,2.6c-3.62-.1-7.24,0-10.93,0v-3h1c3.95,0,7.89,0,11.84,0a9.43,9.43,0,0,0,5.25-1.95.87.87,0,0,0,.26-.65q0-7.08,0-14.17a1.87,1.87,0,0,0-.07-.33H77.56V48h-3v-9.2H71.35v7.65h-3V34.16H65.14V48h-3V40.37H58.93v9.2h-3V35.71H52.72V48H49.66v-.91q0-6.16,0-12.32c0-1.59.58-2.17,2.13-2.18h5.14a1.73,1.73,0,0,1,2,1.95c0,.87,0,1.73,0,2.65h3.17c0-1.34,0-2.66,0-4,0-1.59.58-2.18,2.13-2.18h5.14a1.73,1.73,0,0,1,2,1.95c0,.87,0,1.73,0,2.65H74.5c0-.82,0-1.62,0-2.42,0-1.62.58-2.18,2.23-2.19h4.85c1.59,0,2.17.57,2.17,2.14q0,6.4,0,12.81v1.27c.39-.2.65-.43.92-.45a2.54,2.54,0,0,1,1.49.17,1.83,1.83,0,0,1,.63,1.39c-.32,3.78-.71,7.56-1.1,11.33-.36,3.52-.77,7-1.12,10.56-.29,2.88-.55,5.77-.81,8.65a1.66,1.66,0,0,1-1.69,1.74c-4.43,0-8.86,0-13.29,0A1,1,0,0,1,68.53,80.58Z"/></g></g></svg>