<svg xmlns="http://www.w3.org/2000/svg" viewBox="0 0 34.69 93.36"><defs><style>.cls-1{fill:#292929;}</style></defs><title>whiskey</title><g id="Слой_2" data-name="Слой 2"><g id="Слой_1-2" data-name="Слой 1"><path class="cls-1" d="M23.37,0a3.12,3.12,0,0,1,1.57,3.19c-.07,2.61,0,5.23,0,7.84a11.23,11.23,0,0,1-.48,2,2,2,0,0,0,0,.94,31.1,31.1,0,0,1,1.18,12,5.69,5.69,0,0,1-.24,1.52c-.33.8-.06,1.24.59,1.73,2,1.49,3.85,3.07,5.79,4.57a7.39,7.39,0,0,1,3,6.22q0,21.56,0,43.11c0,1.79,0,3.59,0,5.38a4.58,4.58,0,0,1-4.92,4.89H4.88A4.53,4.53,0,0,1,0,88.52Q0,64.1,0,39.67a7.05,7.05,0,0,1,2.85-5.82C4.93,32.21,7,30.57,9,28.9A1.14,1.14,0,0,0,9.47,28a28.44,28.44,0,0,1,.78-13.86,1.69,1.69,0,0,0-.17-1.52,3.16,3.16,0,0,1-.33-1.57c0-2.64,0-5.29,0-7.93A3.06,3.06,0,0,1,11.34,0Zm8.5,83.88V43.94H14.49c-.33,0-.67,0-1,0a1.37,1.37,0,0,1-1.36-1.33,1.39,1.39,0,0,1,1.32-1.37,7.13,7.13,0,0,1,.82,0H31.84a5.14,5.14,0,0,0-2.41-5.77,9.62,9.62,0,0,1-.79-.62l-6-4.77c-.58-.47-1.07-1-.59-1.78.84-1.33.74-2.83.92-4.34H11.54a27.48,27.48,0,0,0,.82,3.88c.49,1.37.58,1.5-.57,2.42-2.37,1.9-4.71,3.84-7.14,5.67-1.83,1.38-2.1,3.18-1.83,5.31,1.4,0,2.77-.06,4.12,0A2,2,0,0,1,8.27,42a1.38,1.38,0,0,1-.09,1.32,2.18,2.18,0,0,1-1.4.61c-1.32.08-2.65,0-4,0V83.88ZM2.74,86.69c0,.46,0,.85,0,1.24,0,2.18.5,2.68,2.68,2.68H29.29a8.32,8.32,0,0,0,.91,0,1.79,1.79,0,0,0,1.71-1.7c.06-.71,0-1.44,0-2.2ZM21.63,13.85c-2.83,0-5.41,0-8,0a.9.9,0,0,0-.62.57c-.51,2.18-1,4.36-1.47,6.65H23.08Zm-9.11-2.79H22.1V7.81H12.52Zm9.62-8.28H12.52v2h9.63Z"/><path class="cls-1" d="M17.43,46.66a23.51,23.51,0,0,1,9.85,2.25,2.59,2.59,0,0,1,1.25,3.74c-.34.64-.72,1.27-1.11,1.88a2.78,2.78,0,0,1-3.61,1.18,35.07,35.07,0,0,0-5.35-1.35,13.81,13.81,0,0,0-7.19,1.16c-2.15.87-3.13.53-4.3-1.45-.28-.47-.58-.93-.83-1.41a2.61,2.61,0,0,1,1.25-3.75A23.52,23.52,0,0,1,17.43,46.66Zm8.66,4.73a20.33,20.33,0,0,0-17.53,0l1.09,1.84a18.34,18.34,0,0,1,15.37,0Z"/><path class="cls-1" d="M17.66,58.32a10.3,10.3,0,0,1,6.61,2.24c3.25,2.72,3.18,6.55-.11,9.24-3.61,2.95-10.5,2.81-14-.28-3.17-2.82-2.82-7.06.75-9.39A11.81,11.81,0,0,1,17.66,58.32Zm.12,2.74a8.93,8.93,0,0,0-5.55,1.53c-2,1.5-2,3.58,0,5.08a9.19,9.19,0,0,0,10.26-.06c1.87-1.46,1.88-3.5,0-5A7.9,7.9,0,0,0,17.79,61.05Z"/><path class="cls-1" d="M17.45,76c2.58,0,5.16,0,7.74,0a2.3,2.3,0,0,1,1.45.54,1.26,1.26,0,0,1-.6,2,3.21,3.21,0,0,1-1,.13H9.66c-.15,0-.3,0-.45,0a1.45,1.45,0,0,1-1.49-1.4A1.38,1.38,0,0,1,9.25,76c2.73,0,5.46,0,8.19,0Z"/></g></g></svg>