<svg width="43" height="39" viewBox="0 0 43 39" fill="none" xmlns="http://www.w3.org/2000/svg">
<path d="M3.72979 0.574203C3.89472 0.223711 4.24724 0 4.63461 0H36.9281C37.2824 0 37.6103 0.187541 37.79 0.49298L41.6135 6.99298C42.0057 7.65961 41.525 8.5 40.7516 8.5H1.57578C0.842768 8.5 0.358848 7.73745 0.670963 7.0742L3.72979 0.574203Z" fill="white"/>
<path d="M0 19.5C0 17.0147 2.01472 15 4.5 15H38.5C40.9853 15 43 17.0147 43 19.5C43 21.9853 40.9853 24 38.5 24H4.5C2.01472 24 0 21.9853 0 19.5Z" fill="white"/>
<path d="M0.723606 31.4472C0.391156 30.7823 0.874652 30 1.61803 30H41.4612C42.1849 30 42.669 30.7449 42.375 31.4061L39.2639 38.4061C39.1034 38.7673 38.7453 39 38.3501 39H5.11803C4.73926 39 4.393 38.786 4.22361 38.4472L0.723606 31.4472Z" fill="white"/>
</svg>
