<svg width="50" height="50" viewBox="0 0 50 50" fill="none" xmlns="http://www.w3.org/2000/svg">
<circle cx="25" cy="25" r="25" fill="#FAFF00"/>
<path fill-rule="evenodd" clip-rule="evenodd" d="M25.7755 23.5714V28.2H33.5882C33.2733 30.1864 31.2267 34.0243 25.7755 34.0243C21.0722 34.0243 17.2347 30.2057 17.2347 25.5C17.2347 20.7943 21.0722 16.9757 25.7755 16.9757C28.4519 16.9757 30.2427 18.0943 31.266 19.0586L35.0051 15.5293C32.6042 13.3307 29.4949 12 25.7755 12C18.1596 12 12 18.0364 12 25.5C12 32.9636 18.1596 39 25.7755 39C33.7259 39 39 33.5229 39 25.8086C39 24.9214 38.9016 24.2464 38.7835 23.5714H25.7755Z" fill="#292929"/>
</svg>
