<svg width="50" height="50" viewBox="0 0 50 50" fill="none" xmlns="http://www.w3.org/2000/svg">
<circle cx="25" cy="25" r="25" fill="#FAFF00"/>
<path fill-rule="evenodd" clip-rule="evenodd" d="M25.0015 9C20.6561 9 20.1108 9.019 18.4041 9.09667C16.7007 9.17467 15.5381 9.44434 14.5207 9.84001C13.4684 10.2487 12.5757 10.7954 11.6864 11.685C10.7964 12.5744 10.2497 13.467 9.83968 14.5191C9.443 15.5367 9.173 16.6997 9.09633 18.4024C9.02 20.1091 9 20.6548 9 25.0002C9 29.3455 9.01933 29.8892 9.09667 31.5959C9.175 33.2993 9.44467 34.4619 9.84001 35.4793C10.249 36.5316 10.7957 37.4243 11.6854 38.3136C12.5744 39.2036 13.467 39.7517 14.5187 40.1603C15.5367 40.556 16.6997 40.8257 18.4028 40.9037C20.1094 40.9813 20.6545 41.0003 24.9995 41.0003C29.3452 41.0003 29.8889 40.9813 31.5956 40.9037C33.2989 40.8257 34.4629 40.556 35.4809 40.1603C36.533 39.7517 37.4243 39.2036 38.3133 38.3136C39.2033 37.4243 39.75 36.5316 40.16 35.4796C40.5533 34.4619 40.8233 33.2989 40.9033 31.5962C40.98 29.8896 41 29.3455 41 25.0002C41 20.6548 40.98 20.1094 40.9033 18.4028C40.8233 16.6994 40.5533 15.5367 40.16 14.5194C39.75 13.467 39.2033 12.5744 38.3133 11.685C37.4233 10.795 36.5333 10.2483 35.4799 9.84001C34.4599 9.44434 33.2966 9.17467 31.5932 9.09667C29.8866 9.019 29.3432 9 24.9965 9H25.0015ZM23.5662 11.8833C23.9922 11.8827 24.4675 11.8833 25.0015 11.8833C29.2735 11.8833 29.7799 11.8987 31.4669 11.9753C33.0269 12.0467 33.8736 12.3073 34.4376 12.5263C35.1843 12.8163 35.7166 13.163 36.2763 13.723C36.8363 14.283 37.183 14.8164 37.4736 15.563C37.6926 16.1264 37.9536 16.9731 38.0246 18.5331C38.1013 20.2198 38.118 20.7264 38.118 24.9965C38.118 29.2665 38.1013 29.7732 38.0246 31.4599C37.9533 33.0199 37.6926 33.8666 37.4736 34.4299C37.1836 35.1766 36.8363 35.7082 36.2763 36.2679C35.7163 36.8279 35.1846 37.1746 34.4376 37.4646C33.8743 37.6846 33.0269 37.9446 31.4669 38.0159C29.7802 38.0926 29.2735 38.1093 25.0015 38.1093C20.7291 38.1093 20.2228 38.0926 18.5361 38.0159C16.9761 37.9439 16.1294 37.6833 15.5651 37.4643C14.8184 37.1743 14.2851 36.8276 13.725 36.2676C13.165 35.7076 12.8184 35.1756 12.5277 34.4286C12.3087 33.8652 12.0477 33.0186 11.9767 31.4585C11.9 29.7719 11.8847 29.2652 11.8847 24.9925C11.8847 20.7198 11.9 20.2158 11.9767 18.5291C12.048 16.9691 12.3087 16.1224 12.5277 15.5584C12.8177 14.8117 13.165 14.2784 13.725 13.7184C14.2851 13.1583 14.8184 12.8117 15.5651 12.521C16.1291 12.301 16.9761 12.041 18.5361 11.9693C20.0121 11.9027 20.5841 11.8827 23.5662 11.8793V11.8833ZM33.5423 14.54C32.4822 14.54 31.6222 15.399 31.6222 16.4594C31.6222 17.5194 32.4822 18.3794 33.5423 18.3794C34.6023 18.3794 35.4623 17.5194 35.4623 16.4594C35.4623 15.3994 34.6023 14.5394 33.5423 14.5394V14.54ZM25.0015 16.7834C20.4638 16.7834 16.7847 20.4624 16.7847 25.0001C16.7847 29.5379 20.4638 33.2152 25.0015 33.2152C29.5392 33.2152 33.2169 29.5379 33.2169 25.0001C33.2169 20.4624 29.5389 16.7834 25.0012 16.7834H25.0015ZM25.0015 19.6667C27.9469 19.6667 30.3349 22.0544 30.3349 25.0001C30.3349 27.9455 27.9469 30.3335 25.0015 30.3335C22.0558 30.3335 19.6681 27.9455 19.6681 25.0001C19.6681 22.0544 22.0558 19.6667 25.0015 19.6667Z" fill="#292929"/>
</svg>
