<?xml version="1.0" encoding="utf-8"?>
<!-- Generator: Adobe Illustrator 20.1.0, SVG Export Plug-In . SVG Version: 6.00 Build 0)  -->
<svg version="1.1" id="Слой_1" xmlns="http://www.w3.org/2000/svg" xmlns:xlink="http://www.w3.org/1999/xlink" x="0px" y="0px"
	 viewBox="0 0 240 145" style="enable-background:new 0 0 240 145;" xml:space="preserve">
<style type="text/css">
	.st0{fill:#FFFF00;}
	.st1{fill:#FFFFFF;stroke:#FFFFFF;stroke-miterlimit:10;}
	.st2{fill:#FFEC00;stroke:#FFFF00;stroke-miterlimit:10;}
</style>
<path class="st0" d="M0,130.7h0.8c0.1-0.5,0.2-1,0.4-1.5c0.2-0.5,0.4-1,0.8-1.4c0.3-0.4,0.7-0.8,1.2-1.1c0.5-0.3,1.1-0.4,1.7-0.4
	h1.7v14.6c0,0.5,0,1-0.2,1.4c-0.1,0.3-0.3,0.6-0.5,0.9c-0.2,0.3-0.6,0.4-0.9,0.5c-0.4,0.1-0.9,0.1-1.3,0.1v0.7h11.4v-0.7
	c-0.5,0-1,0-1.5-0.1c-0.3-0.1-0.7-0.2-0.9-0.5c-0.2-0.3-0.4-0.6-0.4-0.9c-0.1-0.4-0.1-0.9-0.1-1.4v-14.6h1.5c0.6,0,1.3,0.1,1.8,0.4
	c0.5,0.2,0.9,0.6,1.3,1c0.4,0.4,0.6,0.9,0.8,1.4c0.2,0.5,0.3,1.1,0.4,1.7h0.8v-5.9H0V130.7z M37.6,141l-7.3-16.7h-0.5L23,140.1
	c-0.4,1-0.9,1.8-1.6,2.6c-0.5,0.6-1.2,0.9-1.9,1v0.7h7v-0.7c-0.6,0-1.3-0.1-1.8-0.3c-0.2-0.1-0.4-0.2-0.5-0.4
	c-0.1-0.2-0.2-0.4-0.2-0.6c0-0.2,0-0.4,0.1-0.6c0.1-0.3,0.1-0.5,0.2-0.8l0.9-2.2H31l1.3,3.1c0.1,0.2,0.2,0.3,0.2,0.5
	c0,0.1,0,0.3,0,0.4c0,0.2-0.1,0.3-0.1,0.4c-0.1,0.1-0.2,0.2-0.4,0.2c-0.6,0.2-1.2,0.2-1.8,0.2v0.7h10.3v-0.7c-0.6,0-1.1-0.2-1.5-0.6
	C38.4,142.5,37.9,141.8,37.6,141z M25.7,137.5l2.5-5.8l2.3,5.8H25.7z M64.4,141.5l-4.5-6.6c1.2-0.3,2.4-1,3.3-1.8
	c0.4-0.4,0.7-0.8,0.9-1.4c0.2-0.5,0.3-1.1,0.3-1.6c0-0.8-0.2-1.5-0.5-2.2c-0.4-0.7-0.9-1.3-1.6-1.7c-0.8-0.5-1.7-0.9-2.7-1.1
	c-1.3-0.3-2.5-0.4-3.8-0.4H44.7v0.6c0.5,0,1,0,1.4,0.1c0.3,0.1,0.6,0.2,0.9,0.4c0.2,0.2,0.4,0.4,0.4,0.7c0.1,0.4,0.1,0.7,0.1,1.1
	v13.4c0,0.4,0,0.9-0.1,1.3c-0.1,0.3-0.2,0.6-0.5,0.8c-0.2,0.2-0.5,0.3-0.8,0.4c-0.4,0.1-0.9,0.1-1.3,0.1v0.7h11.1v-0.7
	c-0.5,0-0.9-0.1-1.4-0.1c-0.3,0-0.6-0.2-0.9-0.4c-0.2-0.2-0.4-0.5-0.5-0.8c-0.1-0.4-0.2-0.9-0.1-1.4v-5.2h1.2l5.6,8.5h7.8v-0.7
	c-0.7-0.1-1.3-0.4-1.8-0.8C65.2,142.6,64.8,142.1,64.4,141.5L64.4,141.5z M58.3,131.8c-0.1,0.5-0.4,1-0.8,1.4
	c-0.4,0.4-0.9,0.8-1.4,1c-0.7,0.3-1.4,0.4-2.2,0.4h-1v-8.1h1c1.2-0.1,2.5,0.3,3.5,1c0.4,0.4,0.7,0.8,0.9,1.3c0.2,0.5,0.3,1,0.2,1.6
	C58.5,130.7,58.5,131.2,58.3,131.8L58.3,131.8z M89.2,141l-7.3-16.7h-0.5l-6.9,15.8c-0.4,1-0.9,1.8-1.6,2.6c-0.5,0.6-1.2,0.9-1.9,1
	v0.7h7v-0.7c-0.6,0-1.3-0.1-1.8-0.3c-0.2-0.1-0.4-0.2-0.5-0.4c-0.1-0.2-0.2-0.4-0.2-0.6c0-0.2,0-0.4,0.1-0.6
	c0.1-0.3,0.1-0.5,0.2-0.8l0.9-2.2h5.9l1.3,3.1c0.1,0.2,0.2,0.3,0.2,0.5c0,0.1,0,0.3,0,0.4c0,0.2-0.1,0.3-0.1,0.4
	c-0.1,0.1-0.2,0.2-0.4,0.2c-0.6,0.2-1.2,0.2-1.8,0.2v0.7h10.3v-0.7c-0.6,0-1.1-0.2-1.5-0.6C90,142.5,89.5,141.8,89.2,141z
	 M77.3,137.5l2.5-5.8l2.3,5.8H77.3z M111.2,125.4c0.5,0,1,0.1,1.5,0.2c0.4,0.1,0.7,0.3,0.9,0.6c0.2,0.3,0.4,0.6,0.5,0.9
	c0.1,0.4,0.1,0.8,0.1,1.1v8l-10.8-11.5h-7.9v0.7c0.2,0,0.4,0,0.6,0.1c0.2,0,0.4,0.1,0.6,0.2c0.3,0.1,0.5,0.3,0.7,0.4
	c0.3,0.2,0.6,0.5,0.8,0.8l0.7,0.7v13.3c0.1,0.8-0.2,1.5-0.7,2.1c-0.3,0.2-0.6,0.4-1,0.6c-0.4,0.1-0.7,0.2-1.1,0.1v0.7h7.3v-0.7
	c-0.5,0-1.1-0.1-1.6-0.2c-0.4-0.1-0.7-0.3-1-0.5c-0.2-0.2-0.4-0.6-0.5-0.9c-0.1-0.4-0.1-0.8-0.1-1.2v-11.8l14.6,15.8h0.7v-16.7
	c0-0.4,0-0.8,0.1-1.1c0.1-0.4,0.3-0.7,0.5-1c0.3-0.2,0.6-0.4,1-0.5c0.4-0.1,0.7-0.2,1.1-0.1v-0.7h-7.3V125.4z M122.8,130.7h0.8
	c0.1-0.5,0.2-1,0.4-1.5c0.2-0.5,0.4-1,0.8-1.4c0.3-0.4,0.7-0.8,1.2-1.1c0.5-0.3,1.1-0.4,1.7-0.4h1.7v14.6c0,0.5,0,1-0.2,1.4
	c-0.1,0.3-0.3,0.6-0.5,0.9c-0.3,0.2-0.6,0.4-0.9,0.4c-0.4,0.1-0.9,0.1-1.3,0.1v0.7h11.4v-0.7c-0.5,0-1,0-1.5-0.1
	c-0.3-0.1-0.7-0.2-0.9-0.5c-0.2-0.3-0.4-0.6-0.4-0.9c-0.1-0.4-0.1-0.9-0.1-1.4v-14.6h1.4c0.6,0,1.3,0.1,1.8,0.4
	c0.5,0.2,0.9,0.6,1.3,1c0.4,0.4,0.6,0.9,0.8,1.4c0.2,0.5,0.3,1.1,0.4,1.7h0.8v-5.9h-18.5L122.8,130.7z M145.6,125.4
	c0.4,0,0.8,0,1.2,0.1c0.3,0,0.6,0.2,0.9,0.4c0.2,0.2,0.4,0.5,0.5,0.8c0.1,0.5,0.2,0.9,0.1,1.4v13c0,0.5,0,0.9-0.1,1.4
	c-0.1,0.3-0.2,0.6-0.5,0.8c-0.2,0.2-0.5,0.3-0.9,0.4c-0.4,0.1-0.9,0.1-1.3,0.1v0.7h11v-0.7c-0.5,0-0.9,0-1.4-0.1
	c-0.3,0-0.6-0.2-0.9-0.4c-0.2-0.2-0.3-0.5-0.3-0.8c-0.1-0.4-0.1-0.9-0.1-1.4v-13c0-0.5,0-1,0.1-1.4c0.1-0.3,0.2-0.6,0.5-0.8
	c0.2-0.2,0.5-0.3,0.9-0.4c0.4-0.1,0.9-0.1,1.3-0.1v-0.7h-11L145.6,125.4z M175.8,125.4c0.5,0,1,0.1,1.5,0.2c0.4,0.1,0.7,0.3,0.9,0.6
	c0.2,0.3,0.4,0.6,0.5,0.9c0.1,0.4,0.1,0.8,0.1,1.1v8L168,124.7h-7.9v0.7c0.2,0,0.4,0,0.6,0.1c0.2,0,0.4,0.1,0.6,0.2
	c0.3,0.1,0.5,0.3,0.7,0.4c0.3,0.2,0.6,0.5,0.8,0.8l0.7,0.7v13.3c0.1,0.8-0.2,1.5-0.7,2.1c-0.3,0.2-0.6,0.4-1,0.6
	c-0.4,0.1-0.7,0.2-1.1,0.1v0.7h7.3v-0.7c-0.5,0-1.1-0.1-1.6-0.2c-0.4-0.1-0.7-0.3-1-0.5c-0.2-0.2-0.4-0.6-0.5-0.9
	c-0.1-0.4-0.1-0.8-0.1-1.2v-11.8l14.6,15.8h0.7v-16.7c0-0.4,0-0.8,0.1-1.1c0.1-0.4,0.3-0.7,0.5-1c0.3-0.2,0.6-0.4,1-0.5
	c0.4-0.1,0.7-0.2,1.1-0.1v-0.7h-7.2L175.8,125.4z M207.4,127c-1.1-0.9-2.3-1.6-3.7-2c-1.4-0.5-2.9-0.7-4.3-0.7
	c-1.5,0-3.1,0.2-4.5,0.8c-1.3,0.5-2.5,1.2-3.6,2.2c-1,0.9-1.8,2-2.3,3.3c-0.6,1.3-0.8,2.7-0.8,4.2c0,1.4,0.3,2.9,0.8,4.2
	c0.5,1.2,1.3,2.3,2.3,3.3c1,0.9,2.2,1.7,3.5,2.1c1.5,0.5,3.1,0.8,4.6,0.8c1.6,0,3.2-0.3,4.8-0.8c1.3-0.5,2.5-1.3,3.6-2.2
	c1-0.9,1.7-2,2.2-3.3c0.5-1.3,0.8-2.6,0.8-4c0-1.5-0.3-3-0.9-4.4C209.2,129,208.4,127.9,207.4,127L207.4,127z M204.4,138.4
	c-0.2,1-0.5,1.9-1,2.8c-0.4,0.7-1,1.3-1.7,1.8c-0.7,0.4-1.4,0.6-2.2,0.6c-0.9,0-1.8-0.3-2.5-0.8c-0.7-0.6-1.3-1.3-1.6-2.1
	c-0.4-0.9-0.7-1.9-0.9-2.9c-0.2-1.1-0.3-2.2-0.3-3.2c0-1.4,0.1-2.8,0.5-4.2c0.2-1,0.7-1.9,1.2-2.7c0.4-0.6,1-1.1,1.7-1.5
	c0.6-0.3,1.2-0.5,1.9-0.5c0.7,0,1.5,0.2,2.1,0.6c0.7,0.4,1.3,1,1.7,1.7c0.5,0.9,0.9,1.9,1.1,2.9c0.3,1.3,0.4,2.7,0.4,4.1
	C204.7,136,204.6,137.3,204.4,138.4L204.4,138.4z M217.2,127.2l-0.8,4.3h1.2l2-4.4v-2.4h-2.4L217.2,127.2z M240,137.7
	c0-0.4-0.1-0.7-0.2-1c-0.3-0.8-0.8-1.5-1.4-2.1c-0.6-0.5-1.2-0.9-1.9-1.2c-0.7-0.3-1.4-0.6-2.2-0.9l-2.2-0.8
	c-0.7-0.2-1.3-0.5-1.9-0.8c-0.5-0.3-1-0.6-1.4-1c-0.4-0.4-0.5-0.9-0.5-1.4c0-0.4,0.1-0.8,0.2-1.1c0.1-0.3,0.4-0.7,0.7-0.9
	c0.7-0.6,1.6-0.8,2.6-0.8c0.8,0,1.5,0.1,2.2,0.4c0.7,0.3,1.3,0.7,1.9,1.2c0.6,0.5,1,1.1,1.4,1.8c0.4,0.7,0.7,1.4,1,2.2h0.8v-6.8
	h-0.8c0,0.3-0.1,0.7-0.3,1c-0.1,0.1-0.2,0.2-0.3,0.3c-0.1,0.1-0.3,0.1-0.5,0.1c-0.3,0-0.6-0.1-0.9-0.2c-0.3-0.1-0.7-0.3-1.2-0.5
	c-0.5-0.2-1.1-0.3-1.7-0.5c-0.7-0.2-1.5-0.2-2.2-0.2c-1,0-1.9,0.1-2.8,0.5c-0.8,0.3-1.6,0.7-2.2,1.3c-0.6,0.6-1.1,1.2-1.4,2
	c-0.3,0.8-0.5,1.6-0.5,2.4c0,0.8,0.1,1.7,0.5,2.4c0.3,0.6,0.8,1.2,1.3,1.7c0.6,0.5,1.2,0.9,1.8,1.2c0.7,0.3,1.4,0.6,2.1,0.9l2.1,0.8
	c0.6,0.2,1.3,0.5,1.8,0.9c0.5,0.3,0.9,0.7,1.3,1.1c0.3,0.5,0.5,1,0.5,1.6c0,0.4-0.1,0.7-0.2,1.1c-0.1,0.3-0.4,0.6-0.6,0.9
	c-0.8,0.6-1.8,0.8-2.7,0.7c-1.7,0-3.3-0.6-4.5-1.7c-0.6-0.6-1.2-1.2-1.6-2c-0.4-0.8-0.8-1.7-1-2.6h-0.8v7.6h0.7
	c0.1-0.4,0.3-0.7,0.6-1c0.1-0.1,0.2-0.2,0.4-0.2c0.1-0.1,0.3-0.1,0.4-0.1c0.3,0,0.6,0.1,0.9,0.2l1.2,0.4c0.5,0.2,1.1,0.3,1.6,0.4
	c1.8,0.3,3.7,0.2,5.5-0.3c0.9-0.3,1.7-0.7,2.4-1.3c0.6-0.5,1.1-1.2,1.4-2c0.3-0.8,0.5-1.6,0.5-2.4C240,138.4,240,138,240,137.7
	L240,137.7z"/>
<path class="st0" d="M21.8,11.4V4.3h-3.7v0.4c0.3,0,0.6,0.1,0.9,0.3c0.2,0.4,0.3,0.8,0.2,1.2v5.2c0.1,0.4,0,0.8-0.2,1.2
	c-0.1,0.1-0.3,0.2-0.4,0.3c-0.2,0.1-0.3,0.1-0.5,0.1v0.3h4.8v-0.3c-0.3,0-0.6-0.1-0.9-0.3C21.9,12.2,21.8,11.8,21.8,11.4z M20.5,2.9
	c0.2,0,0.4,0,0.6-0.1c0.2-0.1,0.3-0.2,0.5-0.3c0.1-0.1,0.3-0.3,0.3-0.5C22,1.9,22,1.7,22,1.5c0-0.2,0-0.4-0.1-0.6
	c-0.1-0.2-0.2-0.3-0.3-0.5c-0.3-0.3-0.7-0.4-1-0.4s-0.8,0.2-1,0.4c-0.1,0.1-0.2,0.3-0.3,0.5c-0.1,0.2-0.1,0.4-0.1,0.6
	c0,0.2,0,0.4,0.1,0.6c0.1,0.2,0.2,0.3,0.3,0.5c0.1,0.1,0.3,0.2,0.5,0.3C20.1,2.9,20.3,2.9,20.5,2.9z M34,11.3V7.8
	c0-0.7,0-1.4-0.2-2.1c-0.1-0.5-0.4-0.9-0.8-1.2C32.7,4.2,32.2,4,31.7,4c-0.5,0-0.9,0.1-1.4,0.3C29.8,4.7,29.4,5,29,5.5V4.3h-3.7v0.4
	c0.3,0,0.6,0.1,0.8,0.3c0.2,0.4,0.2,0.8,0.2,1.2v5.1c0,0.4,0,0.8-0.2,1.2c-0.1,0.1-0.2,0.2-0.4,0.3c-0.1,0.1-0.3,0.1-0.4,0.1v0.3
	h4.5v-0.3c-0.1,0-0.3,0-0.4-0.1c-0.1-0.1-0.2-0.1-0.3-0.2c-0.2-0.4-0.2-0.8-0.2-1.2V6.5c0.5-0.8,1-1.2,1.5-1.2
	c0.2,0,0.3,0.1,0.5,0.2c0.1,0.1,0.2,0.3,0.3,0.4c0.1,0.5,0.1,0.9,0.1,1.4v4c0,0.4,0,0.8-0.1,1.2c-0.1,0.1-0.2,0.2-0.3,0.3
	c-0.1,0.1-0.3,0.1-0.4,0.1v0.3H35v-0.3c-0.1,0-0.3,0-0.4-0.1c-0.1-0.1-0.3-0.1-0.4-0.3C34,12.1,34,11.7,34,11.3z M54.9,7.4
	c-0.8-0.5-1.7-0.9-2.6-1c0.9-0.1,1.8-0.5,2.4-1.2c0.4-0.4,0.7-1,0.7-1.7c0-0.6-0.2-1.2-0.5-1.7c-0.4-0.5-0.9-1-1.5-1.2
	c-1-0.3-2.1-0.4-3.2-0.4H44v0.4c0.4,0,0.8,0,1.2,0.2c0.2,0.1,0.4,0.2,0.5,0.4c0.1,0.4,0.2,0.9,0.1,1.3V11c0,0.4,0,0.9-0.1,1.3
	c-0.1,0.2-0.3,0.3-0.5,0.4c-0.4,0.1-0.8,0.2-1.2,0.2v0.4h6.6c1.5,0.1,3-0.3,4.2-1.2c0.4-0.3,0.7-0.6,0.9-1.1
	c0.2-0.4,0.3-0.9,0.3-1.4c0-0.4-0.1-0.9-0.3-1.3C55.5,8,55.2,7.7,54.9,7.4z M48.8,1c0.7,0,1.4,0.1,2,0.3c0.4,0.2,0.7,0.5,1,0.8
	c0.2,0.4,0.4,0.9,0.3,1.4c0,0.5-0.1,1-0.3,1.4c-0.2,0.4-0.6,0.7-1,0.9c-0.6,0.2-1.3,0.3-2,0.3L48.8,1z M52.2,11.2
	c-0.2,0.4-0.6,0.8-1,1c-0.4,0.2-0.9,0.3-1.4,0.3c-0.1,0-0.3,0-0.4,0c-0.1,0-0.3-0.1-0.4-0.2c-0.1-0.1-0.2-0.2-0.2-0.4
	c0-0.1-0.1-0.3,0-0.4V6.9c0.7,0,1.5,0.1,2.2,0.3c0.5,0.2,0.9,0.5,1.2,1c0.3,0.5,0.4,1,0.4,1.6C52.6,10.2,52.5,10.7,52.2,11.2
	L52.2,11.2z M67.5,0.7c0.4,0,0.8,0.1,1.2,0.2c0.2,0.1,0.4,0.3,0.5,0.5c0.1,0.4,0.2,0.8,0.2,1.2v5.3c0.1,1-0.1,2-0.4,2.9
	c-0.2,0.5-0.6,1-1.1,1.3c-0.5,0.3-1.2,0.5-1.8,0.5c-0.5,0-1.1-0.1-1.5-0.4c-0.4-0.2-0.7-0.5-0.9-0.9c-0.2-0.7-0.3-1.5-0.3-2.3V2.6
	c0-0.5,0-0.9,0.1-1.4C63.6,1,63.8,0.9,64,0.8c0.3-0.1,0.7-0.2,1-0.2h0.3V0.3h-6.7v0.4c0.4,0,0.8,0,1.1,0.1c0.2,0.1,0.3,0.2,0.4,0.4
	c0.1,0.5,0.2,0.9,0.1,1.4v6.3c0,0.9,0.1,1.8,0.5,2.6c0.4,0.7,1,1.2,1.8,1.6c0.8,0.3,1.7,0.5,2.6,0.5c1.1,0.1,2.2-0.2,3.2-0.9
	c0.7-0.4,1.2-1.1,1.5-1.9c0.2-1.1,0.3-2.2,0.3-3.3V2.6c0-0.4,0-0.7,0.1-1.1c0.1-0.3,0.3-0.5,0.5-0.7c0.3-0.2,0.6-0.2,0.9-0.2H72V0.3
	h-4.5V0.7z M86.4,11.5l-3.1-4.4C84,7,84.6,6.7,85.1,6.2c0.3-0.3,0.6-0.7,0.8-1.1c0.2-0.4,0.3-0.9,0.3-1.3c0-0.7-0.2-1.5-0.7-2
	c-0.4-0.6-1.1-1-1.8-1.2c-1.1-0.2-2.3-0.3-3.4-0.3h-6v0.4c0.4,0,0.8,0,1.2,0.2c0.2,0.1,0.4,0.2,0.5,0.4c0.1,0.4,0.2,0.9,0.1,1.3V11
	c0,0.4,0,0.9-0.1,1.3c-0.1,0.2-0.3,0.3-0.5,0.4c-0.4,0.1-0.8,0.2-1.2,0.2v0.4h6.6v-0.4c-0.4,0-0.8,0-1.2-0.2
	c-0.2-0.1-0.4-0.2-0.5-0.4c-0.1-0.4-0.2-0.9-0.1-1.3V7.3h0.9l4.2,5.9h4.1v-0.4c-0.3,0-0.6-0.1-0.9-0.3
	C86.9,12.2,86.7,11.8,86.4,11.5z M82.6,5.5c-0.2,0.4-0.6,0.7-1,0.9c-0.6,0.2-1.3,0.3-2,0.2h-0.5V1h1c0.4,0,0.8,0,1.2,0.1
	c0.4,0.1,0.7,0.3,1,0.6c0.5,0.6,0.8,1.4,0.7,2.2C83,4.5,82.9,5,82.6,5.5z M98.3,8.1h0.3c0.3,0,0.5,0.1,0.8,0.2
	c0.2,0.1,0.3,0.2,0.4,0.4c0.1,0.3,0.1,0.7,0.1,1v2.7c-0.3,0.1-0.7,0.2-1,0.3c-0.3,0.1-0.6,0.1-1,0.1c-0.8,0-1.6-0.2-2.3-0.7
	c-0.7-0.5-1.2-1.2-1.4-2.1c-0.3-1.1-0.5-2.2-0.4-3.3c0-1,0.1-2,0.4-3c0.2-0.9,0.7-1.7,1.4-2.3C96.3,1,97.1,0.7,98,0.8
	c1,0,2,0.3,2.8,1c0.9,0.7,1.5,1.7,1.8,2.8h0.4V0h-0.4c-0.1,0.3-0.2,0.5-0.4,0.7c-0.1,0.1-0.3,0.2-0.5,0.2c-0.4-0.1-0.8-0.2-1.1-0.4
	c-0.4-0.2-0.9-0.3-1.3-0.4C98.7,0,98.2,0,97.6,0c-1,0-1.9,0.1-2.8,0.5c-0.9,0.3-1.7,0.9-2.4,1.5c-0.7,0.6-1.2,1.4-1.5,2.2
	c-0.4,0.8-0.5,1.7-0.5,2.6c0,1,0.2,2,0.7,2.9c0.4,0.7,0.9,1.3,1.5,1.8c0.6,0.6,1.4,1,2.2,1.3c1,0.4,2,0.5,3.1,0.5
	c0.9,0,1.9-0.1,2.8-0.3c0.9-0.2,1.8-0.5,2.6-0.8V9.7c0-0.3,0-0.6,0.1-0.9c0.1-0.2,0.2-0.4,0.4-0.5c0.3-0.1,0.7-0.2,1-0.2V7.8h-6.3
	V8.1z M116.6,11.6c-0.8,0.6-1.9,0.9-2.9,0.8h-0.8c-0.3,0-0.6,0-0.8-0.1c-0.2-0.1-0.3-0.2-0.3-0.4c-0.1-0.4-0.1-0.9-0.1-1.3V7
	c0.5,0,1,0.1,1.4,0.2c0.4,0.2,0.7,0.6,0.9,0.9c0.3,0.6,0.4,1.2,0.5,1.8h0.4V3.3h-0.4c-0.1,0.8-0.3,1.6-0.8,2.3
	c-0.2,0.3-0.5,0.5-0.8,0.6c-0.3,0.1-0.7,0.2-1,0.2h-0.3V1h1.3c0.7,0,1.4,0,2.1,0.2c0.6,0.2,1,0.5,1.4,0.9c0.4,0.6,0.7,1.3,0.8,2h0.4
	V0.3h-10.8v0.4h0.4c0.3,0,0.7,0.1,1,0.3c0.2,0.1,0.3,0.3,0.4,0.5c0,0.4,0,0.7,0,1.1V11c0,0.4,0,0.8-0.1,1.2
	c-0.1,0.2-0.2,0.4-0.4,0.5c-0.3,0.1-0.6,0.2-0.9,0.2h-0.4v0.4h11.2l0.7-4.1h-0.4C118,10.1,117.4,11,116.6,11.6L116.6,11.6z
	 M133.5,11.5l-3.1-4.4c0.7-0.1,1.3-0.4,1.8-0.9c0.3-0.3,0.6-0.7,0.7-1.1c0.2-0.4,0.2-0.8,0.2-1.3c0-0.7-0.2-1.5-0.7-2
	c-0.4-0.6-1.1-1-1.8-1.2c-1.1-0.3-2.3-0.4-3.4-0.3h-6v0.4c0.4,0,0.8,0,1.2,0.2c0.2,0.1,0.4,0.2,0.5,0.4c0.1,0.4,0.2,0.9,0.1,1.3V11
	c0,0.4,0,0.9-0.1,1.3c-0.1,0.2-0.3,0.3-0.5,0.4c-0.4,0.1-0.8,0.2-1.2,0.2v0.4h6.6v-0.4c-0.4,0-0.8,0-1.2-0.2
	c-0.2-0.1-0.4-0.2-0.5-0.4c-0.1-0.4-0.2-0.9-0.1-1.3V7.3h0.9l4.2,5.9h4.1v-0.4c-0.3,0-0.6-0.1-0.9-0.3
	C134,12.2,133.7,11.8,133.5,11.5L133.5,11.5z M129.8,5.5c-0.2,0.4-0.6,0.7-1,0.9c-0.6,0.2-1.3,0.3-2,0.2h-0.6V1h1
	c0.4,0,0.8,0,1.2,0.1c0.4,0.1,0.7,0.3,1,0.6c0.5,0.6,0.8,1.4,0.7,2.2C130.1,4.5,130,5,129.8,5.5L129.8,5.5z M154.4,4.7
	c0.3,0,0.5,0.1,0.7,0.2c0.1,0.1,0.1,0.2,0.1,0.3c0,0.1,0,0.2,0,0.3c0,0.3-0.1,0.6-0.2,0.9l-1.1,3.2l-1.2-3.5
	c-0.1-0.3-0.2-0.6-0.3-0.9c0-0.1,0-0.1,0-0.2c0-0.1,0.1-0.1,0.1-0.2c0.2-0.1,0.4-0.2,0.7-0.1V4.3h-4.6v0.4c0.2,0,0.5,0.1,0.7,0.3
	c0.2,0.3,0.4,0.6,0.5,0.9l0.1,0.2l-1.2,3.5l-1.4-3.5c-0.1-0.3-0.2-0.6-0.3-1c0-0.1,0-0.1,0-0.2c0-0.1,0.1-0.1,0.1-0.1
	c0.2-0.1,0.4-0.2,0.6-0.1V4.3h-4.5v0.4c0.3,0.1,0.5,0.2,0.7,0.4c0.4,0.6,0.7,1.2,0.9,1.9l2.4,6.5h0.5l2.4-6.5l2.4,6.5h0.6l2.4-7.1
	c0.1-0.5,0.4-1,0.7-1.4c0.2-0.2,0.4-0.3,0.7-0.3V4.3h-2.6L154.4,4.7z M166,5.1c-0.3-0.3-0.6-0.6-1.1-0.8c-0.4-0.2-0.9-0.3-1.3-0.3
	c-0.5,0-1.1,0.1-1.6,0.3c-0.5,0.2-0.9,0.6-1.3,1c-0.8,1-1.3,2.3-1.2,3.5c0,1.1,0.2,2.1,0.8,3c0.3,0.5,0.8,0.9,1.3,1.2
	c0.5,0.3,1.1,0.4,1.7,0.4c0.7,0,1.4-0.2,2-0.6c0.7-0.6,1.2-1.3,1.6-2.1l-0.3-0.2c-0.3,0.4-0.6,0.8-1,1.1c-0.3,0.2-0.7,0.3-1,0.3
	c-0.3,0-0.6-0.1-0.9-0.2c-0.3-0.1-0.5-0.3-0.7-0.6c-0.6-0.8-0.9-1.8-0.9-2.8h4.9C167,7.2,166.7,6.1,166,5.1L166,5.1z M162.1,7.8V7.5
	c0-0.8,0.2-1.6,0.6-2.3c0.1-0.1,0.2-0.3,0.3-0.4c0.1-0.1,0.3-0.1,0.5-0.1c0.2,0,0.4,0.1,0.5,0.2c0.3,0.2,0.4,0.5,0.5,0.9
	c0.1,0.7,0.2,1.4,0.2,2.1H162.1z M179.7,1.1h-0.3c-0.4,0.7-0.9,1.4-1.5,2.1c-0.6,0.6-1.3,1.2-2,1.7v0.3h1.2v4.9c0,0.6,0,1.2,0.1,1.8
	c0.1,0.4,0.4,0.8,0.7,1c0.4,0.3,0.9,0.5,1.4,0.5c0.6,0,1.1-0.2,1.6-0.5c0.5-0.3,0.8-0.8,1-1.3l-0.3-0.2c-0.4,0.6-0.8,0.9-1.2,0.9
	c-0.1,0-0.2-0.1-0.3-0.1c-0.1-0.1-0.2-0.2-0.3-0.4c-0.1-0.3-0.1-0.7-0.1-1V5.2h2.1V4.3h-2.2V1.1z M190.7,4c-0.5,0-0.9,0.2-1.3,0.5
	c-0.6,0.5-1.2,1.1-1.6,1.8v-2h-3.7v0.4c0.2,0,0.4,0.1,0.6,0.2c0.1,0.1,0.2,0.2,0.3,0.4c0.1,0.3,0.1,0.6,0.1,1v4.9
	c0.1,0.5,0,1-0.2,1.4c-0.1,0.1-0.2,0.2-0.4,0.2c-0.1,0.1-0.3,0.1-0.4,0.1v0.3h4.8v-0.3c-0.3,0-0.5,0-0.8-0.1
	c-0.2-0.1-0.3-0.2-0.3-0.4c-0.1-0.2-0.1-0.5-0.1-0.7V9.1c0-0.7,0.1-1.4,0.3-2c0.1-0.4,0.3-0.7,0.6-0.9c0.1-0.1,0.3-0.2,0.5-0.2
	c0.1,0,0.1,0,0.2,0l0.4,0.4c0.2,0.2,0.6,0.3,0.9,0.3c0.1,0,0.3,0,0.4-0.1c0.1-0.1,0.2-0.1,0.3-0.3c0.2-0.3,0.3-0.6,0.3-1
	c0-0.2,0-0.3-0.1-0.5c-0.1-0.2-0.1-0.3-0.3-0.4C191.4,4.1,191.1,4,190.7,4L190.7,4z M203.1,11.3v-7h-3.7v0.4c0.3,0,0.6,0.1,0.8,0.3
	c0.2,0.4,0.2,0.8,0.2,1.2V11c-0.2,0.4-0.6,0.7-0.9,1c-0.2,0.1-0.4,0.2-0.6,0.2c-0.2,0-0.3,0-0.5-0.1c-0.1-0.1-0.2-0.3-0.3-0.4
	c-0.1-0.4-0.1-0.8-0.1-1.2V4.3h-3.7v0.4c0.3,0,0.6,0.1,0.8,0.3c0.2,0.4,0.2,0.8,0.2,1.2v3.6c0,0.7,0.1,1.5,0.2,2.2
	c0.1,0.4,0.4,0.8,0.8,1.1c0.4,0.3,0.9,0.5,1.3,0.5c0.5,0,1-0.1,1.4-0.4c0.5-0.3,0.9-0.7,1.2-1.1v1.2h3.7v-0.3
	c-0.3,0-0.6-0.1-0.8-0.3C203.1,12.2,203,11.7,203.1,11.3L203.1,11.3z M210.8,7.5c-0.6-0.4-1.2-0.8-1.7-1.3c-0.1-0.1-0.2-0.3-0.2-0.5
	c0-0.1,0-0.2,0.1-0.3c0-0.1,0.1-0.2,0.2-0.3c0.2-0.2,0.4-0.3,0.7-0.3c0.5,0,0.9,0.2,1.2,0.5c0.5,0.5,1,1.1,1.2,1.9h0.3l-0.1-3h-0.3
	c-0.1,0.1-0.2,0.3-0.3,0.4c-0.1,0.1-0.2,0.1-0.3,0.1c-0.1,0-0.3-0.1-0.4-0.1c-0.4-0.2-0.9-0.4-1.4-0.4c-0.4,0-0.7,0.1-1.1,0.2
	c-0.3,0.1-0.6,0.4-0.9,0.6c-0.5,0.5-0.7,1.2-0.7,1.9c0,0.6,0.2,1.2,0.6,1.7c0.6,0.6,1.2,1.1,1.9,1.5c0.4,0.3,0.9,0.6,1.2,1
	c0.2,0.2,0.3,0.5,0.3,0.8c0,0.1,0,0.3-0.1,0.4c-0.1,0.1-0.1,0.2-0.2,0.3c-0.1,0.1-0.2,0.2-0.3,0.2c-0.1,0-0.3,0.1-0.4,0.1
	c-0.5,0-1-0.3-1.4-0.6c-0.6-0.5-1-1.2-1.2-1.9h-0.3l0.2,3.2h0.3c0.1-0.3,0.3-0.5,0.5-0.5c0.1,0,0.3,0.1,0.4,0.1
	c0.5,0.2,1.1,0.4,1.7,0.4c0.5,0,1-0.1,1.5-0.4c0.5-0.3,0.8-0.6,1.1-1.1c0.2-0.4,0.4-1,0.4-1.5c0-0.5-0.1-1-0.4-1.5
	C212.2,8.4,211.6,7.9,210.8,7.5L210.8,7.5z M221.7,5.2V4.3h-2.1V1.1h-0.3c-0.4,0.7-0.9,1.4-1.5,2.1c-0.6,0.6-1.3,1.2-2,1.7v0.3h1.2
	v4.9c0,0.6,0,1.2,0.1,1.8c0.1,0.4,0.4,0.8,0.7,1c0.4,0.3,0.9,0.5,1.4,0.5c0.6,0,1.1-0.2,1.6-0.5c0.5-0.3,0.8-0.8,1-1.3l-0.3-0.2
	c-0.4,0.6-0.8,0.9-1.2,0.9c-0.1,0-0.2-0.1-0.3-0.1c-0.1-0.1-0.2-0.2-0.3-0.4c-0.1-0.3-0.1-0.7-0.1-1V5.2H221.7z"/>
<g>
	<path class="st1" d="M78.8,72.2c-4.2-0.1-6.8-2.9-6.9-3L71.7,69c-1.3-3.7-4-8.3-4.6-9.4c-3.2-1.1-11.6-7.4-12-7.7
		c-9.1-9-8.9-20.8-8.9-21.3l0-1.6l1.2,1.1c5.4,5.3,20.7,2.2,20.9,2.1l0.1,0c5.8,0,9.9,1.6,12,4.7c2.8,4.2,1.3,9.7,0.6,11.5
		c5.2,3.5,2.8,13.8,2.7,14.2l-1.4-0.3c0-0.1,2.4-10.4-2.5-12.9L79.3,49l0.2-0.6c0-0.1,2.6-6.4-0.3-10.7c-1.8-2.7-5.4-4.1-10.7-4.1
		c-1.2,0.3-14.4,2.8-20.8-1.5c0.3,3.4,1.6,12.1,8.4,18.7c2.5,1.8,9.5,6.8,11.7,7.5l0.3,0.1l0.1,0.2c0.1,0.2,3.3,5.5,4.8,9.7
		c0.5,0.4,2.6,2.3,5.8,2.5L78.8,72.2z"/>
</g>
<g>
	<path class="st1" d="M41.9,44.3l-23.9-1.7c-8.3-0.8-11.2-8.9-11.3-9.2C4.5,27,8.9,24.1,9,24l0.8-0.5l0.3,0.9c1.1,3.2,7,6.9,8,7.5
		l19.2,1.4c8.2,1.1,8.3,9,8.3,9.1l-1.4,0c0-0.3-0.2-6.8-7.1-7.7l-19.5-1.4l-0.1-0.1c-0.3-0.2-6.4-3.8-8.4-7.5
		c-0.9,1-2.4,3.3-1.1,7.1c0,0.1,2.8,7.6,10.1,8.3L42,42.9L41.9,44.3z"/>
</g>
<g>
	<path class="st1" d="M50.2,54.9c-0.1,0-0.1,0-0.1,0l-32.9-2.4C6.2,51.9,6.7,38.6,6.7,38.4l1.4,0.1c0,0.5-0.5,12,9.1,12.6l32.9,2.4
		c0.1,0,0.4,0,0.4-0.1c0,0,0.2-0.4-0.8-1.9l-3.9-6.3l1.2-0.7l3.8,6.3c1,1.5,1.3,2.6,0.8,3.3C51.3,54.8,50.5,54.9,50.2,54.9z"/>
</g>
<g>
	<path class="st1" d="M38.5,64.8c-4.2,0-8.3-0.1-11.9-0.4c-12.4-0.9-15.4-10.9-15.4-11l1.4-0.4c0.1,0.4,2.7,9.1,14.1,9.9
		c11.7,0.8,29.4,0.2,34.2-1c-0.1-0.5-0.4-1.5-2-2.4L53.3,56l0.8-1.2l5.6,3.6c3.2,1.8,2.7,4.2,2.7,4.3l-0.1,0.4l-0.4,0.1
		C58.9,64.1,48.6,64.8,38.5,64.8z"/>
</g>
<g>
	<path class="st1" d="M40.6,74.6c-9,0-14.7-7-14.7-7.1l1.1-0.9c0.1,0.1,6.6,8.1,16.7,6.2l21.7-3.5c0-1.8-0.2-4.4-0.7-5.3l1.2-0.7
		c0.9,1.6,0.9,6,0.9,6.6l0,0.6l-22.8,3.7C42.7,74.5,41.6,74.6,40.6,74.6z"/>
</g>
<g>
	<path class="st1" d="M58.6,79.6c-0.2,0-0.4,0-0.6,0c-7.8-0.3-11.7-3.8-11.9-3.9l1-1c0,0,3.7,3.3,11,3.6c6.2,0.2,11.5-3.1,13-4.1
		c-0.3-0.7-1.1-2.2-2.6-2.7l0.4-1.3c2.9,0.9,3.7,4,3.7,4.1l0.1,0.5l-0.4,0.3C72,75.1,66.1,79.6,58.6,79.6z"/>
</g>
<g>
	<path class="st1" d="M63.9,85c-4.4,0-7.3-3.1-7.5-3.3l1-1c0.2,0.2,3.8,4,8.8,2.5c0.2,0,10-1.6,12.5-6.5c-0.4-0.6-1.6-1.9-4.3-1.4
		L74.2,74c3.6-0.6,5.5,1.3,6,2.4l0.1,0.3L80.2,77c-2.5,5.9-13.2,7.6-13.7,7.6C65.6,84.9,64.7,85,63.9,85z"/>
</g>
<g>
	<path class="st1" d="M83.3,74.1c-0.1-0.1-2.1-1.7-2-3.7c0.1-1.2,0.9-2.3,2.5-3.1l0.2-0.1c0.1,0,2.9-0.7,1.8-6.9l0-0.1l0-0.1
		c0-0.2,3.6-15.2,26.2-18.4c0.8-0.2,20.3-3.7,29.6,3.8c0.5,0.5,9,10.6,9.9,15.8c0.3,0.5,1,2.1,1.1,4.7c1,0.3,3.1,1.1,3.6,2.8
		c0.4,1.4-0.2,3-2,4.7l-1-1c0.9-0.9,2-2.2,1.6-3.3c-0.4-1.2-2.4-1.8-3.1-1.9l-0.6-0.1l0-0.6c0.1-2.9-0.9-4.6-0.9-4.6l-0.1-0.3
		c-0.7-4.7-9.4-15-9.5-15.1c-8.7-7-28.2-3.5-28.4-3.4c-20.5,2.9-24.6,15.8-25,17.1c1.1,6.8-2.1,8.1-2.9,8.3c-1,0.6-1.6,1.2-1.7,1.9
		c-0.1,1.1,1,2.2,1.4,2.5L83.3,74.1z"/>
</g>
<g>
	<path class="st1" d="M114.3,110.7c-21.9,0-25.2-8.6-25.3-8.9l-0.1-0.2l0-0.2c1.6-6.7-3.9-10.1-4-10.1c-3.2-2,0-9.6,0.4-10.5
		l1.3,0.6c-1.1,2.4-2.7,7.7-1,8.7c0.1,0,6.3,3.9,4.6,11.4c0.6,1.2,5.3,8.7,27.8,7.7c0.3,0,22.8,0.5,29.8-9c0.2-0.2,2.5-2.8,0.5-6.1
		l-0.1-0.2l0-0.2c0-0.2-0.2-5.1,3.1-6.7l0.3-3.6l1.4,0.1l-0.3,4.4l-0.4,0.2c-2.5,1-2.6,4.6-2.6,5.4c1.9,3.4,0.4,6.4-0.7,7.6
		c-7.4,10-29.9,9.6-30.9,9.5C116.9,110.6,115.6,110.7,114.3,110.7z"/>
</g>
<g>
	<path class="st1" d="M160.1,74c-0.4,0-0.8,0-1.2-0.1l0.2-1.4c4,0.6,7.3-3.1,7.8-3.8c2.4-9.2,7.4-9.4,8.6-9.3
		c14.6-6.8,17.2-19,17.7-23.5c-3.9,2.7-11.9,2.2-19.2,1.6c-2.7-0.2-5.3-0.4-7.4-0.4c0,0,0,0,0,0c-1.7,0-3.1,0.6-4.2,1.8
		c-3.2,3.5-2.6,11.1-2.5,11.2l0,0.4l-0.3,0.2c-3.2,2.2-3.2,10.2-2.9,13.1l-1.4,0.1c0-0.4-1-10.7,3.2-14.1c-0.1-1.7-0.3-8.4,2.9-11.9
		c1.3-1.5,3.1-2.2,5.2-2.2c0,0,0,0,0,0c2.2,0,4.8,0.2,7.5,0.4c7.9,0.6,16.8,1.2,19.3-2.4l1.2-1.8l0.1,2.1c0,0.2,0.4,17.8-18.7,26.7
		l-0.2,0.1l-0.2,0c-0.2,0-4.9-0.7-7.2,8.4l-0.1,0.3C168.1,69.7,164.8,74,160.1,74z"/>
</g>
<g>
	<path class="st1" d="M208.3,49.6c-3,0-6.5-0.1-10.3-0.4l0.1-1.4c23.1,1.6,30.6-2.2,33-4.7c1.3-1.4,1.3-2.5,1.3-2.5l0-0.2l0.1-0.2
		c1.9-3.8,1.6-5.7,1.1-6.6c-0.4-0.6-0.9-0.9-1.3-1c-3.4,9.4-23.3,7-24.1,6.9c-10.7-1.6-12.2,6.8-12.2,7.1l-1.4-0.2
		c0-0.1,1.7-10.2,13.8-8.3c0.2,0,20.4,2.4,22.8-6.5l0.1-0.6l0.6,0c0.1,0,2,0.1,3,1.9c1,1.7,0.7,4.4-1,7.8c0,0.5-0.2,1.9-1.7,3.4
		C229.5,46.8,223.2,49.6,208.3,49.6z"/>
</g>
<g>
	<path class="st1" d="M189.1,58.7l-0.1-0.1c-0.1-0.1-1.3-0.7-1.4-1.9c-0.1-0.9,0.4-1.8,1.5-2.7l3.4-4.6l1.1,0.8l-3.6,4.8
		c-0.7,0.6-1.1,1.1-1,1.5c0,0.3,0.4,0.6,0.5,0.7l30.9,0c5.1-0.1,8.7-1.5,10.6-4.1c2.6-3.6,1.2-8.5,1.2-8.5l1.4-0.4
		c0.1,0.2,1.6,5.6-1.4,9.7c-2.2,3-6.1,4.6-11.7,4.7L189.1,58.7z"/>
</g>
<g>
	<path class="st1" d="M210.2,70.7c-0.3,0-0.5,0-0.8,0L179,67.3c-0.6-0.3-2.7-1.2-2.9-2.5c-0.1-0.4,0-1,0.8-1.6
		c2-1.4,8.5-4.7,8.7-4.8l0.6,1.3c-0.1,0-6.7,3.3-8.6,4.7c-0.2,0.1-0.3,0.2-0.3,0.3c0,0.3,1,1,2,1.4l30.1,3.3
		c12,0.4,17.4-9.9,17.4-10l1.3,0.6C228.1,60,222.5,70.7,210.2,70.7z"/>
</g>
<g>
	<path class="st1" d="M201.2,79.4c-0.1,0-0.2,0-0.3,0c-2.5-0.1-26.4-4.5-28.3-6.8l0,0c-0.1-0.1-1.7-2.5,0.4-6.4l1.2,0.7
		c-1.7,3.1-0.5,4.8-0.5,4.9l0,0c1.7,1.2,22.5,6,27.2,6.2c4.3,0.2,9.8-5.3,9.9-5.3l1,1C211.6,73.9,206.1,79.4,201.2,79.4z M173.8,72
		L173.8,72C173.8,72,173.8,72,173.8,72z"/>
</g>
<g>
	<path class="st1" d="M180.8,83.1c-2,0-4.1-0.3-6.2-1c-0.2,0-8.7-1.3-8.7-5.9l0-0.4l0.3-0.2c0,0,2.2-1.5,3-2.2l0.9,1.1
		c-0.7,0.6-2.1,1.6-2.8,2c0.5,2.5,5.6,3.9,7.6,4.1c7.8,2.6,16.1-1.3,16.2-1.3l0.6,1.3C191.4,80.8,186.6,83.1,180.8,83.1z"/>
</g>
<g>
	<path class="st1" d="M173.3,87.6c-1.5,0-3-0.2-4.5-0.7c-0.4-0.1-10-2.5-10.6-7.7c-0.1-0.3-0.1-0.8,0.2-1.3c0.6-1,2.4-1.4,5.3-1.2
		l-0.1,1.4c-3.3-0.2-3.9,0.5-4,0.6l0.1,0.1l0,0.2c0.3,3.5,7,5.9,9.5,6.6c5,1.7,10.9-0.7,11-0.7l0.5,1.3
		C180.5,86.2,177.2,87.6,173.3,87.6z"/>
</g>
<g>
	<path class="st2" d="M103.7,102.7c-0.1,0-0.2,0-0.4,0c-0.9-0.2-3.6-1.6-2.4-14.4c0-0.1-0.1-0.1-0.2-0.2c-0.1,0-0.3,0-0.6,0.1
		c-0.1,0.4-0.2,1-0.4,1.6C99,91.8,97.7,92,97,92l-0.3,0l-0.2-0.2c-0.2-0.2-1.7-2-1-6.9c-1-0.9-4.7-3.7-8.7-4.9
		c-1.2-0.5-3.1-2.1-2.3-4.9c1.1-3.5,2.8-3.6,5.2-3.5c1.2,0.1,2.9,1.1,4.8,2.2c2.2,1.3,4.8,2.7,6.4,2.7c0,0,0,0,0,0
		c1.1,0,2.6-0.4,4.3-0.8c3.2-0.8,7.3-1.7,12.2-1.4c4.7,0.3,7.2,1.4,8.8,2c1,0.4,1.6,0.7,2.3,0.6c0.8-0.1,3.3-0.6,6.3-1.2
		c5.1-1,11.4-2.3,14.3-2.4l0.1,0l0.1,0c0.5,0.1,4.9,1.4,5.4,4.1c0.2,1.4-0.7,2.9-2.8,4.2c-0.4,0.2-7.4,4-10.2,4.9l-0.4-1.3
		c2.7-0.8,9.8-4.7,9.9-4.7c1-0.7,2.3-1.8,2.1-2.8c-0.2-1.5-3.1-2.6-4.3-3c-2.8,0.1-9.2,1.4-13.9,2.4c-3.1,0.6-5.6,1.1-6.5,1.2
		c-1,0.1-1.9-0.3-2.9-0.7c-1.6-0.7-3.9-1.6-8.4-1.9c-4.7-0.4-8.6,0.6-11.8,1.3c-1.8,0.4-3.3,0.8-4.6,0.8c0,0,0,0,0,0
		c-2,0-4.6-1.5-7.1-2.9c-1.7-1-3.4-1.9-4.2-2c-2-0.1-2.9-0.1-3.7,2.5c-0.7,2.2,1.2,3.1,1.4,3.2c5,1.4,9.3,5.2,9.5,5.4l0.3,0.3
		L97,84.7c-0.6,3.5,0.1,5.2,0.4,5.8c0.3-0.1,0.7-0.3,1-1.2c0.3-0.7,0.3-1.5,0.3-1.5l0-0.3l0.3-0.2c0.7-0.5,1.4-0.7,2-0.5
		c0.8,0.3,1.1,1,1.1,1.1l0.1,0.2l0,0.2c-1.1,11.1,0.9,12.9,1.2,13c0.8,0,1.5-0.2,2.1-0.8c2.2-2.1,1.9-7.8,1.9-7.8
		c0.5-6.3,1-9.8,6.5-9.4c3.1,0.2,4.6,2.8,5.7,4.7c0.6,1,1.2,2,1.7,2c0,0,0,0,0,0c1.4,0,4.2-2.3,5.6-3.8l0.6-0.6l0.5,0.6
		c2.6,3.4,4.7,5,6.2,4.6c1.7-0.5,2.4-4,2.5-5.2l1.4,0.1c0,0.6-0.6,5.5-3.5,6.4c-2,0.6-4.3-0.9-7.2-4.4c-1.2,1.2-4.1,3.7-6.1,3.7
		c0,0,0,0,0,0c-1.3,0-2-1.3-2.9-2.7c-1.1-1.8-2.3-3.8-4.6-4c-3.8-0.3-4.5,1.4-4.9,8c0,0.2,0.3,6.2-2.3,8.8
		C105.7,102.3,104.8,102.7,103.7,102.7z"/>
</g>
</svg>
